<svg width="711" height="1089" viewBox="0 0 711 1089" fill="none" xmlns="http://www.w3.org/2000/svg">
<path stroke="currentColor" stroke-width="10" id="Vector" fill-rule="evenodd" clip-rule="evenodd" d="M374 5.66205C338.909 9.09505 296.168 22.509 269.373 38.498C251.527 49.148 237.953 62.266 231.403 75.192C229.646 78.659 226.949 81.4361 221.255 85.6401C211.07 93.1591 194.763 109.468 187.346 119.551C174.707 136.733 168.146 150.419 162.687 170.989C159.807 181.845 159.63 183.581 159.58 201.5C159.535 217.918 159.828 221.685 161.737 229.217C164.586 240.457 171.444 253.961 178.021 261.281L183.215 267.062L181.968 273.67C180.23 282.881 181.258 302.324 183.996 312C186.784 321.857 194.347 337.606 201.865 349.213C207.212 357.466 208.082 359.531 209.4 367.087C212.315 383.805 216.907 392.146 226.948 398.964C230.879 401.634 233.206 403.971 233.635 405.681C234.933 410.854 233.186 447.077 231.136 457.5C225.655 485.36 214.31 502.741 189.242 521.685C150.312 551.102 116.077 567.011 46.5 588.013C27.697 593.689 15.151 599.116 10.337 603.657C2.49301 611.055 3.70101 625.591 14.686 656C21.531 674.951 26.648 686.209 46.501 726.004C63.453 759.986 67.543 769.44 80.455 804.5C86.097 819.821 91.835 832.497 96.287 839.478C98.048 842.24 105.505 851.7 112.856 860.5C140.207 893.24 155.076 907.384 165.432 910.511C169.332 911.689 176.704 912 200.682 912H231V932.3C231 946.756 231.345 952.945 232.2 953.8C232.86 954.46 234.947 955 236.837 955H240.274L239.761 961.389C238.787 973.525 231.495 984.718 220.5 990.954C217.75 992.514 211 995.446 205.5 997.471C192.045 1002.42 188.404 1004.94 185.434 1011.31C183.037 1016.46 183.019 1016.74 183.01 1049.13C183.002 1075.38 183.265 1081.98 184.356 1082.88C185.352 1083.71 235.426 1083.94 373.106 1083.75L560.5 1083.5L560.764 1051.16C560.921 1031.95 560.624 1017.32 560.033 1015.12C558.38 1008.98 553.816 1005.66 539.27 1000.01C513.826 990.131 505.962 981.687 504.341 962.507L503.717 955.129L508.109 954.814L512.5 954.5L512.77 933.75L513.041 913L540.77 912.969C584.219 912.921 588.34 911.869 603.031 897.085C631.075 868.862 661.287 807.396 684.665 731C699.576 682.271 708.188 632.112 705.082 612.089C702.777 597.233 696.696 589.246 682.607 582.57C666.328 574.855 631.841 565.953 602.5 561.891C594.044 560.72 593.107 560.343 587 555.656C579.465 549.873 567.699 544.092 557 540.915C550.658 539.032 546.72 538.651 531.5 538.442C513.753 538.199 513.388 538.15 505.5 534.941C501.1 533.151 493.96 529.641 489.634 527.141L481.768 522.595L482.473 505.048C482.86 495.396 483.25 487.426 483.338 487.334C483.427 487.243 488.675 488.263 495 489.601C502.227 491.129 511.741 492.265 520.605 492.658C533.181 493.215 535.459 493.055 541.626 491.182C555.341 487.016 565.047 477.274 569.126 463.577C570.907 457.598 571.158 454.655 570.795 444.019C570.368 431.497 569.975 429.866 564.391 417.393C564.119 416.784 565.271 415.716 566.952 415.02C570.913 413.379 575.465 408.152 577.01 403.469C577.78 401.136 577.988 397.609 577.572 393.929C576.978 388.68 577.18 387.685 579.58 384.059C581.624 380.969 582.441 378.123 583.068 371.897C584.461 358.08 590.596 352 603.144 352C612.356 352 617.197 349.34 620.584 342.418C624.235 334.956 623.665 329.664 617.631 315C607.756 291.001 593.643 251.204 589.882 236.749L587.866 228.997L589.954 226.065C596.958 216.229 597.409 202.042 591.357 182C588.275 171.797 578.541 144.946 576.474 140.949C574.157 136.47 574.644 135.409 580.28 132.651C596.437 124.746 602.806 111.74 600.075 92.224C595.97 62.877 576.169 37.7071 552.297 31.4891C545.157 29.6291 529.134 29.559 522.201 31.358L516.967 32.716L516.411 30.108C513.465 16.287 502.871 9.26604 483.5 8.29704C471.741 7.70804 457.759 10.163 448.841 14.382C445.798 15.822 442.759 17 442.089 17C441.42 17 438.338 15.8411 435.241 14.4241C419.732 7.33005 394.238 3.68305 374 5.66205ZM366.362 13.9591C350.961 15.7221 320.677 23.567 304.659 29.943C280.746 39.461 261.327 50.957 250.227 62.166C243.188 69.274 241.186 71.995 236.95 80.218C234.721 84.544 232.725 86.764 228.752 89.336C216.355 97.36 200.164 113.451 189.845 128C179.746 142.239 172.199 159.468 168.383 177C166.979 183.448 166.53 189.724 166.525 203C166.518 218.28 166.808 221.508 168.808 228.443C174.05 246.611 185.478 262.106 197.228 266.976C202.993 269.365 204.985 272.108 202.836 274.698C201.364 276.471 200.036 276.346 194.544 273.916C191.953 272.77 189.615 272.051 189.349 272.318C189.082 272.585 188.415 276.035 187.868 279.986C186.682 288.547 188.002 301.505 191.097 311.685C193.529 319.683 201.466 335.846 206.898 343.861C212.889 352.703 214.925 357.385 216.585 366.135C219.53 381.658 224.189 389.482 233.422 394.407C236.938 396.282 237.032 396.282 239.15 394.407C243.81 390.282 253.136 377.554 258.301 368.268C263.834 358.323 274.535 333.602 275.568 328.379C276.02 326.095 275.026 323.641 270.759 316.5C260.23 298.88 256.157 285.953 255.32 267.5C254.865 257.449 255.111 254.171 256.837 247.317C259.224 237.841 262.596 230.674 268.192 223.184C270.376 220.261 271.95 217.311 271.688 216.629C271.426 215.947 266.923 211.452 261.681 206.64C253.062 198.728 251.43 197.669 244.624 195.569C235.251 192.677 229.883 189.558 223.592 183.346C208.482 168.426 207.388 141.496 221.073 121.328C227.983 111.144 230.7 108.564 233.414 109.605C235.871 110.548 235.295 114.354 232.083 118.395C222.354 130.638 219 139.359 219.001 152.407C219.001 160.322 219.37 162.277 221.843 167.5C225.588 175.409 232.509 182.38 240.257 186.045C248.974 190.169 251.073 189.948 257.145 184.267C261.172 180.501 263.425 176.978 268.177 167.017C271.461 160.133 274.677 153.411 275.324 152.08C276.841 148.959 278.362 148.505 280.418 150.561C282.369 152.512 282.167 153.369 276.94 165.379C272.261 176.127 266.208 186.495 261.952 191.052L258.803 194.422L261.152 196.284C262.443 197.309 266.921 201.494 271.101 205.584L278.702 213.022L282.601 211.389C285.49 210.179 288.314 209.894 293.5 210.288C307.018 211.314 316.46 217.032 331.113 233.064C335.694 238.076 340.762 242.86 342.375 243.694C343.988 244.528 348.051 245.31 351.404 245.431C356.142 245.603 358.366 246.248 361.39 248.326C368.408 253.151 375.051 250.908 378.551 242.533C382.24 233.702 379.897 227.77 368.145 216.196C358.355 206.555 356.221 202.273 357.432 194.7C358.457 188.29 361.273 184.042 372.485 171.99C384.627 158.938 391.035 150.77 394.823 143.515C398.492 136.488 398.616 124.768 395.098 117.62C391.651 110.618 382.786 102.056 373.25 96.52C368.712 93.885 365 91.202 365 90.556C365 89.911 365.65 88.5091 366.444 87.4411C367.853 85.5471 368.054 85.585 374.64 88.96C388.74 96.188 401.058 108.992 403.992 119.471C404.751 122.183 405.079 127.277 404.816 132.282C404.088 146.149 399.11 154.621 379.182 175.904C368.115 187.724 366.431 190.009 364.928 195.252C363.669 199.641 366.67 204.666 374.936 212.013C384.028 220.093 387 225.813 387 235.228C387 245.962 383.133 252.801 374.577 257.2C369.498 259.811 364.394 259.166 357.822 255.08C354.24 252.854 351.644 252 348.454 252C340.808 252 337.217 249.722 324.376 236.72C310.071 222.236 304.362 218.755 293.945 218.167C285.682 217.7 281.203 219.756 274.683 227.008C261.124 242.088 258.291 268.054 267.382 293.904C277.236 321.923 302.211 347.204 321.572 348.758L327.872 349.264L333.776 343.632C339.816 337.871 342.328 336.806 343.383 339.556C345.108 344.051 336.298 354.035 328.832 356.045C326.397 356.701 322.432 356.917 319.637 356.546C309.914 355.256 293.731 345.979 285.702 337.091C283.669 334.841 281.816 333 281.585 333C281.353 333 279.944 336.712 278.452 341.25C275.116 351.395 264.99 372.086 258.753 381.5C256.202 385.35 251.14 391.749 247.504 395.72L240.893 402.94L240.811 421.22C240.717 442.211 239.86 451.115 236.459 466.42C228.581 501.876 203.789 526.385 141.983 559.814C122.743 570.22 93.501 581.134 45 596.009C28.989 600.92 15.67 607.048 13.366 610.564C9.213 616.902 15.207 640.915 28.915 672.85C32.302 680.743 43.337 703.918 53.436 724.35C72.516 762.951 74.85 768.283 85.024 796.5C91.984 815.803 101.643 836.336 105.917 840.912C109.377 844.616 110.574 844.684 133 842.449C202.463 835.528 258.202 822.249 310.997 800.042C346.11 785.273 379.054 765.123 408.567 740.367C430.013 722.378 459.303 691.554 475.907 669.5C485.535 656.712 500.31 634.976 499.753 634.419C499.494 634.161 496.406 635.607 492.891 637.634C489.376 639.661 474.8 647.593 460.5 655.26C446.2 662.927 433.965 669.638 433.31 670.173C432.656 670.707 430.856 670.999 429.31 670.822C425.097 670.339 425.647 667.145 430.5 663.912C433.907 661.643 485.645 633.542 500.329 625.985C504.253 623.966 505.93 622.187 509.271 616.5C517.419 602.632 527.242 577.629 529.363 565.362C530.3 559.938 520.767 546 516.119 546C512.613 546 499.546 540.928 490.526 536.065L481.321 531.103L479.526 548.031C477.182 570.128 474.062 585.962 471.769 587.389C470.457 588.205 469.665 588.094 468.502 586.931C467.121 585.55 467.163 584.241 468.918 573.948C472.852 550.875 476.639 505.793 475.834 491.629L475.5 485.758L453.5 478.524C428.791 470.4 414.22 464.168 397.148 454.424C370.647 439.298 353.064 423.31 341.878 404.169C337.51 396.694 337.137 394.532 339.952 393.026C342.276 391.782 341.952 391.441 349.917 403.5C365.453 427.02 393.761 447.461 433.176 463.621C462.42 475.611 505.312 485.999 525.5 485.982C549.732 485.962 564 471.394 564 446.673C564 436.75 562.163 427.844 558.927 422.08C556.931 418.524 556.878 418.502 550.978 418.838C545.395 419.155 544.965 419.018 543.846 416.561C542.144 412.825 543.591 411.892 551.629 411.544C564.108 411.004 570.032 406.664 570.791 397.508C571.042 394.478 570.854 391.965 570.374 391.921C562.134 391.178 550.017 390.643 544.573 390.783C536.886 390.981 532.967 391.996 525.365 395.76C519.622 398.602 516.68 398.253 517.18 394.789C517.563 392.128 522.144 388.886 529.843 385.825C534.916 383.808 537.265 383.572 552.593 383.538C571.038 383.497 571.753 383.313 574.566 377.872C575.355 376.347 576 373.542 576 371.639C576 365.759 579.607 356.001 583.12 352.376C584.904 350.536 586.169 348.859 585.932 348.65C585.694 348.441 582.686 347.31 579.246 346.135C568.491 342.463 558.298 343.809 553.829 349.49C549.492 355.004 543.964 350.975 542.106 340.946C540.66 333.135 541.831 325.671 545.481 319.443C548.207 314.79 550.541 313.374 552.627 315.105C554.594 316.738 554.341 318.562 551.465 323.469C548.535 328.469 547.119 337.234 548.895 339.374C549.895 340.578 550.79 340.508 555.043 338.892C562.924 335.897 572.007 336.357 584.768 340.398C599.212 344.971 600.046 345.118 605.616 344.077C611.465 342.984 616 338.583 616 333.998C616 332.364 614.14 326.183 611.866 320.264C596.356 279.876 587.557 254.703 583.9 240.258L580.734 227.756L584.392 220.628C590.893 207.958 590.382 199.904 581.464 174.5C573.387 151.49 572.103 148.146 568.938 141.877C567.322 138.676 566 134.75 566 133.153C566 128.178 561.501 119.611 556.641 115.333C549.511 109.057 542.5 107.682 532 110.5C524.862 112.416 516.515 112.395 510.797 110.447C506.262 108.901 506.212 108.909 501.418 111.95C490.456 118.902 479.201 120.734 467.96 117.395C453.726 113.169 445.721 101.583 443.501 82C442.674 74.707 439.78 66.108 436.53 61.285C432.431 55.203 424.054 49.5881 416.001 47.5231C411.206 46.2941 409.835 44.109 412.126 41.348C415.188 37.659 429.512 43.354 437.504 51.439C444.399 58.413 447.77 65.899 450.076 79.357C452.357 92.668 454.247 98.073 458.193 102.567C467.013 112.613 481.332 114.426 495.429 107.282L500.425 104.751L497.614 102.509C494.601 100.107 494.408 97.402 497.127 95.69C498.383 94.899 500.206 95.577 505.127 98.667C515.715 105.314 520.083 106.188 529.346 103.51C548.176 98.0671 564.591 105.817 570.707 123.038C572.184 127.195 572.788 127.894 574.482 127.407C578.34 126.298 587.259 119.566 589.642 115.965C597.129 104.652 593.764 81.582 582.01 63.636C576.793 55.67 565.999 45.06 559.999 41.999C550.481 37.144 536.766 35.84 524.5 38.623C511.961 41.469 512.152 41.4661 511.152 38.8591C510.654 37.5621 509.716 34.25 509.066 31.5C507.625 25.397 503.564 20.919 496.847 18.03C492.847 16.309 489.916 15.9251 480.729 15.9201C469.979 15.9151 462.224 17.3031 452.632 20.9501L449.852 22.007L456.751 28.753C462.334 34.212 464.734 37.6301 469.321 46.6611C475.618 59.0561 478.644 62.5061 485.623 65.2471C493.749 68.4391 513.061 67.349 524.338 63.061C528.326 61.545 531.547 61.749 533.095 63.615C537.043 68.372 518.263 74.4021 499.5 74.4021C480.476 74.4021 472.446 69.427 464.18 52.517C456.537 36.882 448.79 29.082 434.119 22.254C420.818 16.063 409.818 13.848 390.5 13.472C381.15 13.29 370.288 13.5091 366.362 13.9591ZM297 97.9331C297 99.8671 297.595 101.036 298.75 101.368C299.712 101.644 303.875 102.843 308 104.031C317.458 106.755 324.553 110.766 331.829 117.502C339.714 124.802 342.503 130.559 342.488 139.5C342.473 148.681 339.838 154.006 330.859 163.003C324.126 169.749 322.497 173.209 325.509 174.365C326.338 174.683 328.042 174.554 329.295 174.078C332.986 172.675 343.545 160.641 346.62 154.333C349.095 149.256 349.466 147.334 349.482 139.5C349.498 131.576 349.154 129.795 346.606 124.606C343.09 117.446 334.565 108.703 326.063 103.539C318.985 99.238 306.42 95 300.75 95C297.269 95 297 95.2101 297 97.9331ZM513.5 195.066C503.535 195.91 496.871 197.974 486 203.583C472.665 210.464 452 226.802 452 230.464C452 231.27 452.913 232.418 454.028 233.015C455.672 233.895 456.593 233.664 458.881 231.8C472.661 220.576 476.592 217.584 482.602 213.742C493.859 206.544 503.639 203.21 516.06 202.333C534.546 201.028 546.95 205.67 566.049 221.039C567.585 222.275 569.275 222.832 570.299 222.439C576.246 220.157 565.522 208.724 550.681 201.522C537.988 195.363 528.809 193.769 513.5 195.066ZM507.552 220.126C499.975 221.901 489.523 227.82 481.25 235.02C475.326 240.175 473 242.857 473 244.532C473 248.16 476.165 248.458 482.189 245.397C485.11 243.913 489.75 242.075 492.5 241.313C497.681 239.876 520 238.245 520 239.303C520 239.633 519.325 242.494 518.5 245.661C514.533 260.893 519.646 277.575 525.53 268.595C526.958 266.415 526.96 265.841 525.553 262.473C523.638 257.888 523.608 254.061 525.436 247.194C527.325 240.1 528.413 239 533.546 239C539.018 239 544 235.209 544 231.046C544 223.776 534.364 218.937 520.212 219.1C515.421 219.156 509.723 219.617 507.552 220.126ZM512 226.433C505.308 227.711 496.691 231.072 495.606 232.828C495.251 233.402 497.419 233.242 500.746 232.448C504.893 231.459 510.591 231.222 521.153 231.599C536.24 232.139 539.235 231.484 534.782 228.621C532.721 227.295 522.203 224.859 519.566 225.096C518.98 225.149 515.575 225.75 512 226.433ZM286.5 232.597C278.711 236.871 274.392 244.642 273.023 256.843C269.436 288.83 286.134 319.304 310.901 325.973C315.847 327.305 319.504 326.736 320.361 324.5C320.953 322.959 320.747 322.84 306.888 316.716C295.623 311.739 285.425 297.874 281.353 282C279.323 274.087 279.098 258.499 280.908 251.204C281.742 247.842 283.411 244.646 285.479 242.454C288.301 239.461 289.368 239 293.467 239C299.339 239 303.684 241.012 309.917 246.616C317.038 253.018 319.364 259.308 317.367 266.761C316.131 271.374 309.16 270.192 302.858 264.302C299.056 260.748 296.156 261.541 293.325 266.907C290.238 272.759 290.14 282.129 293.092 288.993C294.243 291.668 295.805 294.095 296.563 294.386C298.504 295.13 301.262 292.097 300.442 290.121C298.125 284.537 297.275 274.693 298.89 272.143C299.548 271.106 299.926 271.071 300.498 271.997C301.659 273.875 309.15 276.954 312.618 276.978L315.737 277L316.22 284.25C316.838 293.541 319.324 301.27 323.88 308.065C327.845 313.979 331.814 316.229 334.437 314.052C335.818 312.906 335.597 312.219 332.491 307.988C325.811 298.888 323.596 292.573 323.55 282.5C323.527 277.55 323.907 270.254 324.394 266.287C325.556 256.832 324.11 251.772 318.137 244.388C309.644 233.889 294.459 228.23 286.5 232.597ZM345.25 533.662C344.563 533.94 344 535.501 344 537.133C344 539.97 349.043 566.001 354.533 591.5C359.382 614.023 363.019 632.488 368.388 661.841C374.032 692.702 375.205 696.224 378.678 692.75C380.188 691.241 380.232 690.235 379.123 682.786C376.739 666.775 368.031 621.162 361.123 588.5C357.284 570.35 353.393 551.479 352.476 546.565C349.989 533.229 349.313 532.023 345.25 533.662ZM419.345 547.75C414.312 559.379 410.452 566.499 405.523 573.25C399.565 581.408 398.957 583.371 401.9 584.946C403.446 585.774 404.394 585.362 407.001 582.731C413.945 575.722 423.101 559.955 424.915 551.883C426.654 544.144 422.303 540.915 419.345 547.75ZM528 544.952C528 545.31 530.882 549.974 534.404 555.317C551.927 581.893 564.139 615.616 569.417 652C576.011 697.447 576.868 774.663 571.415 832C568.548 862.143 565.988 875.186 562.817 875.797C559.419 876.451 558.733 872.542 560.427 862.173C568.593 812.199 570.697 725.556 565.066 671.13C564.533 665.978 563.85 661.517 563.548 661.215C563.247 660.913 563 661.459 563 662.427C563 664.557 556.59 677.431 549.82 688.897C523.235 733.926 483.512 777.155 432 817.118C411.408 833.093 382.625 853.096 371.674 859.041C368.668 860.673 367.542 860.865 366.424 859.937C363.711 857.686 365.02 855.47 371.709 850.992C424.508 815.641 454.944 791.264 485.5 759.854C492.65 752.504 501.229 743.343 504.565 739.495C528.285 712.138 548.976 679.425 560.074 651.731L561.985 646.963L559.413 634.731C556.046 618.725 549.267 598.563 542.298 583.833C539.219 577.325 536.413 572 536.063 572C535.712 572 533.927 576.612 532.096 582.25C517.133 628.312 484.454 677.146 437.573 723.5C379.605 780.816 312.524 815.513 219.5 836.296C186.842 843.592 166.854 846.611 128 850.112C121.125 850.731 115.348 851.374 115.163 851.539C114.978 851.705 118.331 856.039 122.615 861.17C134.591 875.514 157.731 898.156 163.5 901.175L168.5 903.791L252 904.384C297.925 904.71 389.95 905.095 456.5 905.239L577.5 905.5L584.166 902.342C594.675 897.363 607.198 883.481 621.154 861.341C665.19 791.485 708.419 645.871 696.767 606.648C695.04 600.836 687.764 593.41 679.931 589.465C672.264 585.604 656.319 580.565 637.961 576.201C620.758 572.111 602.107 568.559 601.424 569.243C601.111 569.555 601.969 571.575 603.33 573.731C621.904 603.153 630.357 642.155 636.442 726.5C640.873 787.925 642.08 813.349 640.634 814.795C638.508 816.921 635.199 814.701 634.584 810.738C634.307 808.957 633.818 801.425 633.496 794C632.653 774.553 629.07 715.128 628.491 711C628.221 709.075 627.531 701.425 626.957 694C624.626 663.825 618.529 629.504 612.013 609.879C599.842 573.22 582.589 555.05 552.872 547.596C543.77 545.313 528 543.636 528 544.952ZM124 609.011C115.573 609.952 113.82 610.734 114.197 613.377C114.494 615.457 115.001 615.512 139.5 616.107C174.754 616.963 193.981 619.95 225.166 629.415C250.435 637.085 287.933 653.847 317.989 670.91C324.858 674.81 330.991 678 331.617 678C332.243 678 333.313 677.327 333.996 676.505C336.003 674.087 332.898 670.568 324.749 666.025C297.121 650.623 256.32 631.842 234.896 624.665C211.052 616.677 180.54 610.741 154.595 609.042C137.346 607.912 133.859 607.908 124 609.011ZM238 929.411V946.822L268.25 947.235C284.887 947.461 345.188 947.738 402.25 947.849L506 948.052V930.691V913.33L414.335 912.665C363.919 912.299 303.619 912 280.335 912H238V929.411ZM247 960.395C247 967.271 243.922 977.266 239.963 983.243C233.942 992.332 226.827 997.043 209.838 1003.19C196.215 1008.12 194.454 1009.19 191.942 1014.11C188.083 1021.68 176.213 1021 312.623 1021C380.065 1021 444.077 1021.04 454.873 1021.1C465.668 1021.15 492.388 1021.15 514.25 1021.1L554 1021V1018.67C554 1014.82 549.947 1012.17 534.715 1006.05C526.722 1002.85 518.203 998.86 515.784 997.196C509.603 992.943 504.187 986.65 501.323 980.393C498.529 974.292 496.534 963.259 497.333 958.334L497.874 955H372.437H247V960.395ZM190 1052.5V1076L372.25 1076L554.5 1076L554.215 1052.5L553.93 1029H371.965H190V1052.5Z" />
</svg>
