<svg xmlns="http://www.w3.org/2000/svg" width="2234" height="500" fill="none"><path fill="#C8A765" fill-rule="evenodd" stroke="#C8A765" stroke-width="10" d="M243.02 7.81c-32.26 4.27-49.916 9.335-77.34 22.191-49.557 23.23-87.745 59.869-114.516 109.877-35.403 66.13-33.323 152.503 5.435 225.709 66.725 126.023 221.099 167.109 343.974 91.546 29.622-18.216 62.48-52.422 81.192-84.527 5.079-8.71 5.255-9.972 2.134-15.197-1.874-3.134-4.43-5.686-5.681-5.671-1.251.018-6.985 7.555-12.742 16.752-11.406 18.221-32.253 43.328-35.952 43.297-1.275-.008-7.009-6.534-12.743-14.503-5.734-7.966-16.083-22.075-22.999-31.349-6.916-9.277-20.97-28.264-31.231-42.194-10.263-13.93-20.504-27.248-22.758-29.598-2.256-2.348-4.101-5.062-4.101-6.031 0-2.442-7.571-10.622-9.832-10.622-1.017 0-3.024 2.449-4.458 5.44-1.983 4.138-1.92 6.231.265 8.733 2.333 2.671 2.008 4.446-1.72 9.426-4.575 6.114-33.1 50.566-43.859 68.352-3.114 5.147-6.877 9.332-8.359 9.299-1.485-.035-8.385-9.204-15.335-20.373-6.948-11.17-18.785-29.096-26.301-39.833-10.951-15.643-13.41-20.733-12.381-25.631.938-4.458-.016-7.218-3.533-10.211-4.685-3.988-4.889-3.988-7.418-.024-10.53 16.501-85.88 126.481-88.278 128.855-2.521 2.491-4.666 1.029-12.916-8.81-13.141-15.67-32.308-44.068-32.308-47.869 0-1.67 9.668-15.545 21.483-30.834 11.816-15.29 40.487-53.072 63.715-83.961 43.385-57.693 60.888-79.528 45.632-56.92-7.898 11.706-8.394 13.497-8.229 29.733.396 39.267 22.19 73.819 60.422 95.797l14.571 8.373 11.83-6.006c16.104-8.175 42.819-34.162 50.407-49.034 11.028-21.615 12.202-26.467 12.005-49.588-.171-20.19-.873-23.687-7.325-36.541-6.93-13.802-33.409-41.531-39.662-41.531-3.213 0-1.249 3.399 11.468 19.822 5.16 6.662 12.212 17.564 15.673 24.227 5.635 10.845 6.295 14.54 6.314 35.278.018 21.679-.459 24.09-7.474 37.644-8.707 16.82-24.795 33.942-40.881 43.507-10.583 6.292-11.72 6.519-17.776 3.544-9.221-4.535-28.078-20.344-33.119-27.771-3.767-5.55-3.837-6.308-.58-6.308 2.037 0 3.703-.911 3.703-2.026 0-3.268 28.83-47.121 31.543-47.98 1.362-.431 10.72 11.12 20.798 25.67 10.076 14.551 19.647 26.473 21.266 26.497 1.622.022 4.076-2.313 5.454-5.189 2.238-4.669.278-8.389-18.254-34.688-11.42-16.201-21.989-31.686-23.49-34.413-1.499-2.727-3.624-4.956-4.72-4.956-1.093 0-11.73 15.367-23.633 34.147-11.904 18.782-22.582 33.851-23.727 33.488-1.145-.361-4.191-5.57-6.772-11.572-6.619-15.406-6.445-45.645.371-63.566 5.68-14.937 5.741-15.248 2.629-13.42-4.974 2.923-1.67-2.482 14.638-23.94 9.325-12.272 22.95-30.488 30.278-40.481 7.328-9.992 14.08-18.17 15.004-18.17.924 0 5.806 5.192 10.847 11.534 5.039 6.344 10.412 13.035 11.937 14.867 2.539 3.05 45.713 57.664 107.104 135.478 13.379 16.958 24.926 31.329 25.661 31.935 1.58 1.304 19.809 24.233 41.149 51.757.938 1.211 5.82 7.94 10.845 14.955 8.943 12.481 9.197 12.644 12.08 7.708 6.841-11.715 8.776-8.757-65.293-99.748-25.07-30.796-104.931-131.181-122.736-154.278-25.994-33.719-31.624-40.635-33.074-40.623-.923.008-3.452 2.977-5.621 6.6-2.166 3.623-17.74 24.676-34.606 46.789-16.867 22.11-36.706 48.129-44.089 57.82-7.386 9.691-14.256 18.61-15.27 19.822-2.493 2.98-27.677 36.115-37.181 48.92-10.873 14.648-40.65 53.486-57.9 75.517-8.062 10.296-15.823 18.72-17.246 18.72-3.97 0-12.633-33.386-15.61-60.17-7.947-71.491 18.984-141.499 72.859-189.41 28.687-25.51 63.228-43.884 100.858-53.65 26.576-6.896 82.205-7.36 108.89-.907 90.393 21.855 157.625 93.259 171.449 182.086 4.117 26.442 1.937 72.878-4.469 95.195l-4.935 17.192 4.859 6.484c2.671 3.566 5.264 6.484 5.764 6.484 2.085 0 10.771-31.065 14.137-50.563 8.646-50.075-3.419-114.379-29.637-157.941-25.121-41.736-60.779-74.003-105.039-95.048-29.836-14.185-44.861-18.425-83.406-23.533-26.998-3.576-23.967-3.585-52.128.141Zm91.257 304.487c-1.344.844-6.005 7.629-10.359 15.08-20.341 34.796-54.303 88.866-55.819 88.866-.929 0-5.484-6.193-10.122-13.765-30.51-49.806-55.671-89.624-56.66-89.668-1.351-.059-4.256 4.126-30.366 43.734-45.181 68.537-45.769 69.52-43.29 72.361 4.511 5.171 30.776 21.975 44.696 28.592 26.18 12.448 45.829 17.733 76.038 20.46 50.358 4.542 99.676-7.847 145.299-36.499 27.058-16.991 28.685-9.754-16.584-73.803-21.778-30.816-39.775-56.221-39.995-56.459-.218-.236-1.497.26-2.838 1.101Z" clip-rule="evenodd"/><mask id="a" width="1180" height="241" x="552" y="141" fill="#000" maskUnits="userSpaceOnUse"><path fill="#fff" d="M552 141h1180v241H552z"/><path d="m730.623 369-26.367-67.969h-85.84L592.195 369H567l83.789-215.039h22.412L756.404 369h-25.781Zm-33.838-90.088-25.049-67.529c-.586-1.758-1.562-4.639-2.929-8.643-1.27-4.004-2.588-8.154-3.955-12.451a838.718 838.718 0 0 0-3.37-10.4 272.334 272.334 0 0 1-3.222 12.011 317.21 317.21 0 0 1-3.223 10.987c-1.074 3.32-2.002 6.152-2.783 8.496l-25.488 67.529h70.019ZM786.141 369V154.84h24.902v191.894h95.068V369h-119.97Zm181.64 0h-24.902V154.84h119.241v21.972h-94.339v78.516h88.619v21.826h-88.619V369ZM1283.6 261.627c0 16.504-2.1 31.543-6.3 45.117-4.2 13.477-10.45 25.098-18.75 34.863-8.2 9.668-18.41 17.139-30.61 22.413-12.21 5.273-26.37 7.91-42.48 7.91-16.6 0-31.11-2.637-43.51-7.91-12.3-5.274-22.56-12.793-30.76-22.559-8.11-9.766-14.21-21.436-18.31-35.01-4-13.574-6.01-28.613-6.01-45.117 0-21.875 3.62-41.064 10.84-57.568 7.23-16.504 18.17-29.346 32.82-38.526 14.74-9.179 33.2-13.769 55.37-13.769 21.19 0 39.01 4.541 53.46 13.623 14.55 9.082 25.54 21.875 32.96 38.379 7.52 16.406 11.28 35.791 11.28 58.154Zm-170.51 0c0 18.164 2.59 33.887 7.77 47.168 5.17 13.281 13.08 23.535 23.73 30.762 10.74 7.226 24.36 10.839 40.87 10.839 16.6 0 30.17-3.613 40.72-10.839 10.64-7.227 18.51-17.481 23.58-30.762 5.08-13.281 7.62-29.004 7.62-47.168 0-27.637-5.81-49.219-17.43-64.746-11.52-15.625-29.54-23.438-54.05-23.438-16.61 0-30.28 3.565-41.02 10.694-10.74 7.129-18.75 17.285-24.02 30.468-5.18 13.086-7.77 28.76-7.77 47.022Zm276.13-106.787c17.57 0 32.08 2.197 43.5 6.592 11.53 4.297 20.12 10.888 25.78 19.775 5.67 8.887 8.5 20.215 8.5 33.984 0 11.329-2.05 20.801-6.15 28.418-4.1 7.52-9.47 13.623-16.12 18.311-6.64 4.687-13.72 8.301-21.24 10.84l58.74 96.24h-29l-52.44-89.355h-44.53V369h-24.9V154.84h57.86Zm-1.47 21.533h-31.49v82.178h33.98c17.48 0 30.32-3.565 38.53-10.694 8.3-7.128 12.45-17.627 12.45-31.494 0-14.551-4.4-24.853-13.18-30.908-8.7-6.055-22.12-9.082-40.29-9.082ZM1516.51 369V154.84h24.9V369h-24.9Zm204.64-56.982c0 12.695-3.17 23.535-9.52 32.519-6.25 8.887-15.04 15.674-26.37 20.361-11.33 4.688-24.66 7.032-39.99 7.032-8.1 0-15.77-.391-23-1.172-7.22-.781-13.86-1.904-19.92-3.369-6.05-1.465-11.38-3.272-15.97-5.42v-23.877c7.33 3.027 16.26 5.859 26.81 8.496 10.55 2.539 21.58 3.808 33.11 3.808 10.74 0 19.82-1.416 27.24-4.248 7.42-2.929 13.04-7.08 16.85-12.451 3.9-5.468 5.86-12.011 5.86-19.629 0-7.324-1.61-13.427-4.84-18.31-3.22-4.981-8.59-9.473-16.11-13.477-7.42-4.101-17.58-8.447-30.47-13.037-9.08-3.223-17.09-6.738-24.02-10.547-6.93-3.906-12.75-8.301-17.43-13.183-4.69-4.883-8.26-10.547-10.7-16.993-2.34-6.445-3.51-13.818-3.51-22.119 0-11.425 2.88-21.191 8.64-29.297 5.86-8.203 13.92-14.453 24.17-18.75 10.35-4.394 22.22-6.591 35.6-6.591 11.42 0 21.97 1.074 31.64 3.222 9.76 2.149 18.7 5.03 26.8 8.643l-7.76 21.387c-7.72-3.223-15.92-5.909-24.61-8.057-8.59-2.148-17.48-3.223-26.66-3.223s-16.94 1.368-23.29 4.102c-6.25 2.637-11.04 6.396-14.36 11.279-3.32 4.883-4.98 10.694-4.98 17.432 0 7.519 1.57 13.769 4.69 18.75 3.22 4.98 8.3 9.424 15.24 13.33 7.03 3.809 16.3 7.812 27.83 12.012 12.59 4.589 23.29 9.472 32.08 14.648 8.79 5.078 15.48 11.328 20.07 18.75 4.59 7.324 6.88 16.65 6.88 27.979Z"/></mask><path fill="#C8A765" d="m730.623 369-26.367-67.969h-85.84L592.195 369H567l83.789-215.039h22.412L756.404 369h-25.781Zm-33.838-90.088-25.049-67.529c-.586-1.758-1.562-4.639-2.929-8.643-1.27-4.004-2.588-8.154-3.955-12.451a838.718 838.718 0 0 0-3.37-10.4 272.334 272.334 0 0 1-3.222 12.011 317.21 317.21 0 0 1-3.223 10.987c-1.074 3.32-2.002 6.152-2.783 8.496l-25.488 67.529h70.019ZM786.141 369V154.84h24.902v191.894h95.068V369h-119.97Zm181.64 0h-24.902V154.84h119.241v21.972h-94.339v78.516h88.619v21.826h-88.619V369ZM1283.6 261.627c0 16.504-2.1 31.543-6.3 45.117-4.2 13.477-10.45 25.098-18.75 34.863-8.2 9.668-18.41 17.139-30.61 22.413-12.21 5.273-26.37 7.91-42.48 7.91-16.6 0-31.11-2.637-43.51-7.91-12.3-5.274-22.56-12.793-30.76-22.559-8.11-9.766-14.21-21.436-18.31-35.01-4-13.574-6.01-28.613-6.01-45.117 0-21.875 3.62-41.064 10.84-57.568 7.23-16.504 18.17-29.346 32.82-38.526 14.74-9.179 33.2-13.769 55.37-13.769 21.19 0 39.01 4.541 53.46 13.623 14.55 9.082 25.54 21.875 32.96 38.379 7.52 16.406 11.28 35.791 11.28 58.154Zm-170.51 0c0 18.164 2.59 33.887 7.77 47.168 5.17 13.281 13.08 23.535 23.73 30.762 10.74 7.226 24.36 10.839 40.87 10.839 16.6 0 30.17-3.613 40.72-10.839 10.64-7.227 18.51-17.481 23.58-30.762 5.08-13.281 7.62-29.004 7.62-47.168 0-27.637-5.81-49.219-17.43-64.746-11.52-15.625-29.54-23.438-54.05-23.438-16.61 0-30.28 3.565-41.02 10.694-10.74 7.129-18.75 17.285-24.02 30.468-5.18 13.086-7.77 28.76-7.77 47.022Zm276.13-106.787c17.57 0 32.08 2.197 43.5 6.592 11.53 4.297 20.12 10.888 25.78 19.775 5.67 8.887 8.5 20.215 8.5 33.984 0 11.329-2.05 20.801-6.15 28.418-4.1 7.52-9.47 13.623-16.12 18.311-6.64 4.687-13.72 8.301-21.24 10.84l58.74 96.24h-29l-52.44-89.355h-44.53V369h-24.9V154.84h57.86Zm-1.47 21.533h-31.49v82.178h33.98c17.48 0 30.32-3.565 38.53-10.694 8.3-7.128 12.45-17.627 12.45-31.494 0-14.551-4.4-24.853-13.18-30.908-8.7-6.055-22.12-9.082-40.29-9.082ZM1516.51 369V154.84h24.9V369h-24.9Zm204.64-56.982c0 12.695-3.17 23.535-9.52 32.519-6.25 8.887-15.04 15.674-26.37 20.361-11.33 4.688-24.66 7.032-39.99 7.032-8.1 0-15.77-.391-23-1.172-7.22-.781-13.86-1.904-19.92-3.369-6.05-1.465-11.38-3.272-15.97-5.42v-23.877c7.33 3.027 16.26 5.859 26.81 8.496 10.55 2.539 21.58 3.808 33.11 3.808 10.74 0 19.82-1.416 27.24-4.248 7.42-2.929 13.04-7.08 16.85-12.451 3.9-5.468 5.86-12.011 5.86-19.629 0-7.324-1.61-13.427-4.84-18.31-3.22-4.981-8.59-9.473-16.11-13.477-7.42-4.101-17.58-8.447-30.47-13.037-9.08-3.223-17.09-6.738-24.02-10.547-6.93-3.906-12.75-8.301-17.43-13.183-4.69-4.883-8.26-10.547-10.7-16.993-2.34-6.445-3.51-13.818-3.51-22.119 0-11.425 2.88-21.191 8.64-29.297 5.86-8.203 13.92-14.453 24.17-18.75 10.35-4.394 22.22-6.591 35.6-6.591 11.42 0 21.97 1.074 31.64 3.222 9.76 2.149 18.7 5.03 26.8 8.643l-7.76 21.387c-7.72-3.223-15.92-5.909-24.61-8.057-8.59-2.148-17.48-3.223-26.66-3.223s-16.94 1.368-23.29 4.102c-6.25 2.637-11.04 6.396-14.36 11.279-3.32 4.883-4.98 10.694-4.98 17.432 0 7.519 1.57 13.769 4.69 18.75 3.22 4.98 8.3 9.424 15.24 13.33 7.03 3.809 16.3 7.812 27.83 12.012 12.59 4.589 23.29 9.472 32.08 14.648 8.79 5.078 15.48 11.328 20.07 18.75 4.59 7.324 6.88 16.65 6.88 27.979Z"/><path fill="#C8A765" d="m730.623 369-9.323 3.617 2.476 6.383h6.847v-10Zm-26.367-67.969 9.323-3.616-2.476-6.384h-6.847v10Zm-85.84 0v-10h-6.861l-2.469 6.401 9.33 3.599ZM592.195 369v10h6.861l2.469-6.401-9.33-3.599ZM567 369l-9.318-3.631L552.371 379H567v-10Zm83.789-215.039v-10h-6.836l-2.482 6.369 9.318 3.631Zm22.412 0 9.326-3.609-2.473-6.391h-6.853v10ZM756.404 369v10h14.592l-5.265-13.609-9.327 3.609Zm-59.619-90.088v10h14.375l-4.999-13.478-9.376 3.478Zm-25.049-67.529-9.487 3.162.053.159.059.157 9.375-3.478Zm-2.929-8.643-9.533 3.023.034.105.035.104 9.464-3.232Zm-7.325-22.851 9.487-3.163-10.977-32.93-8.225 33.723 9.715 2.37ZM658.26 191.9l-9.598-2.809-.023.079-.021.079 9.642 2.651Zm-3.223 10.987 9.515 3.078.012-.04.013-.04-9.54-2.998Zm-2.783 8.496 9.356 3.531.069-.183.062-.186-9.487-3.162Zm-25.488 67.529-9.356-3.531-5.107 13.531h14.463v-10Zm113.18 86.471-26.367-67.968-18.646 7.233 26.367 67.969 18.646-7.234Zm-35.69-74.352h-85.84v20h85.84v-20Zm-95.17 6.401-26.221 67.969 18.66 7.198 26.221-67.969-18.66-7.198ZM592.195 359H567v20h25.195v-20Zm-15.877 13.631 83.789-215.039-18.636-7.262-83.789 215.039 18.636 7.262Zm74.471-208.67h22.412v-20h-22.412v20Zm13.086-6.392 83.203 215.04 18.653-7.218-83.204-215.039-18.652 7.217ZM756.404 359h-25.781v20h25.781v-20Zm-50.243-83.566-25.049-67.529-18.751 6.956 25.048 67.529 18.752-6.956Zm-24.938-67.213c-.598-1.796-1.585-4.707-2.953-8.712l-18.927 6.463c1.367 4.002 2.333 6.853 2.906 8.573l18.974-6.324Zm-2.884-8.503c-1.271-4.008-2.59-8.161-3.958-12.461l-19.059 6.064c1.367 4.294 2.684 8.441 3.952 12.442l19.065-6.045Zm-3.958-12.461a843.78 843.78 0 0 0-3.412-10.531l-18.973 6.325a822.693 822.693 0 0 1 3.326 10.27l19.059-6.064Zm-22.614-9.738a262.64 262.64 0 0 1-3.105 11.572l19.195 5.618a283.122 283.122 0 0 0 3.341-12.451l-19.431-4.739Zm-3.149 11.73a308.287 308.287 0 0 1-3.121 10.639l19.08 5.997a326.629 326.629 0 0 0 3.325-11.333l-19.284-5.303Zm-3.095 10.56a1049.377 1049.377 0 0 1-2.756 8.412l18.974 6.324c.793-2.38 1.731-5.242 2.811-8.58l-19.029-6.156Zm-2.625 8.043-25.488 67.529 18.711 7.062 25.489-67.529-18.712-7.062Zm-16.132 81.06h70.019v-20h-70.019v20ZM786.141 369h-10v10h10v-10Zm0-214.16v-10h-10v10h10Zm24.902 0h10v-10h-10v10Zm0 191.894h-10v10h10v-10Zm95.068 0h10v-10h-10v10Zm0 22.266v10h10v-10h-10Zm-109.97 0V154.84h-20V369h20Zm-10-204.16h24.902v-20h-24.902v20Zm14.902-10v191.894h20V154.84h-20Zm10 201.894h95.068v-20h-95.068v20Zm85.068-10V369h20v-22.266h-20Zm10 12.266h-119.97v20h119.97v-20Zm61.67 10v10h10v-10h-10Zm-24.902 0h-10v10h10v-10Zm0-214.16v-10h-10v10h10Zm119.241 0h10v-10h-10v10Zm0 21.972v10h10v-10h-10Zm-94.339 0v-10h-10v10h10Zm0 78.516h-10v10h10v-10Zm88.619 0h10v-10h-10v10Zm0 21.826v10h10v-10h-10Zm-88.619 0v-10h-10v10h10Zm0 81.846h-24.902v20h24.902v-20Zm-14.902 10V154.84h-20V369h20Zm-10-204.16h119.241v-20H942.879v20Zm109.241-10v21.972h20V154.84h-20Zm10 11.972h-94.339v20h94.339v-20Zm-104.339 10v78.516h20v-78.516h-20Zm10 88.516h88.619v-20h-88.619v20Zm78.619-10v21.826h20v-21.826h-20Zm10 11.826h-88.619v20h88.619v-20Zm-98.619 10V369h20v-91.846h-20Zm319.519 29.59 9.55 2.975v-.01l.01-.01-9.56-2.955Zm-18.75 34.863-7.62-6.476v.007l7.62 6.469Zm-116.6 22.413-3.94 9.191.02.006.01.005 3.91-9.202Zm-30.76-22.559-7.7 6.387.02.022.02.023 7.66-6.432Zm-18.31-35.01-9.59 2.829.01.032.01.032 9.57-2.893Zm37.65-141.211-5.29-8.489-.01.008-.01.008 5.31 8.473Zm108.83-.146-5.32 8.467.02.008.01.008 5.29-8.483Zm32.96 38.379-9.12 4.101.02.033.01.032 9.09-4.166Zm-127.73 136.084-5.62 8.273.02.012.02.012 5.58-8.297Zm81.59 0-5.62-8.274-.01.012-.02.012 5.65 8.25Zm13.77-142.676-8.05 5.935.02.029.02.028 8.01-5.992Zm-119.09 17.724-9.29-3.713v.018l-.01.017 9.3 3.678Zm152.74 47.022c0 15.66-1.99 29.685-5.85 42.162l19.11 5.91c4.53-14.671 6.74-30.724 6.74-48.072h-20Zm-5.84 42.142c-3.84 12.323-9.48 22.721-16.83 31.362l15.24 12.953c9.26-10.891 16.12-23.734 20.68-38.365l-19.09-5.95Zm-16.83 31.369c-7.16 8.437-16.09 15.007-26.96 19.702l7.93 18.36c13.55-5.853 25.03-14.225 34.28-25.123l-15.25-12.939Zm-26.96 19.702c-10.72 4.63-23.48 7.09-38.51 7.09v20c17.19 0 32.75-2.814 46.44-8.73l-7.93-18.36Zm-38.51 7.09c-15.56 0-28.68-2.473-39.6-7.113l-7.82 18.405c13.89 5.907 29.77 8.708 47.42 8.708v-20Zm-39.57-7.102c-10.94-4.689-19.9-11.291-27.04-19.799l-15.32 12.864c9.26 11.023 20.81 19.46 34.48 25.318l7.88-18.383Zm-27.01-19.754c-7.15-8.624-12.67-19.069-16.43-31.515l-19.14 5.785c4.44 14.702 11.13 27.596 20.18 38.504l15.39-12.774Zm-16.41-31.452c-3.69-12.518-5.6-26.587-5.6-42.288h-20c0 17.307 2.1 33.316 6.42 47.946l19.18-5.658Zm-5.6-42.288c0-20.783 3.44-38.559 10-53.557l-18.32-8.022c-7.88 18.009-11.68 38.612-11.68 61.579h20Zm10-53.557c6.46-14.746 16.09-25.997 28.97-34.063l-10.62-16.947c-16.43 10.293-28.67 24.725-36.67 42.988l18.32 8.022Zm28.94-34.047c12.78-7.954 29.28-12.259 50.09-12.259v-20c-23.53 0-43.94 4.874-60.66 15.28l10.57 16.979Zm50.09-12.259c19.76 0 35.63 4.226 48.14 12.09l10.64-16.934c-16.39-10.301-36.16-15.156-58.78-15.156v20Zm48.17 12.106c12.77 7.973 22.48 19.196 29.13 33.997l18.24-8.203c-8.19-18.206-20.46-32.57-36.78-42.76l-10.59 16.966Zm29.16 34.062c6.8 14.825 10.37 32.728 10.37 53.988h20c0-23.466-3.94-44.334-12.19-62.321l-18.18 8.333Zm-160.14 53.988c0 19.08 2.72 36.091 8.45 50.799l18.63-7.262c-4.61-11.855-7.08-26.289-7.08-43.537h-20Zm8.45 50.799c5.83 14.955 14.93 26.919 27.43 35.404l11.23-16.547c-8.79-5.968-15.5-14.512-20.03-26.119l-18.63 7.262Zm27.47 35.428c12.79 8.606 28.5 12.542 46.45 12.542v-20c-15.06 0-26.6-3.289-35.29-9.137l-11.16 16.595Zm46.45 12.542c18.02 0 33.73-3.927 46.37-12.59l-11.3-16.499c-8.45 5.79-19.89 9.089-35.07 9.089v20Zm46.34-12.566c12.51-8.496 21.58-20.481 27.3-35.464l-18.68-7.142c-4.42 11.579-11.08 20.102-19.86 26.059l11.24 16.547Zm27.3-35.464c5.62-14.689 8.28-31.678 8.28-50.739h-20c0 17.267-2.42 31.723-6.96 43.597l18.68 7.142Zm8.28-50.739c0-28.907-6.06-52.884-19.42-70.738l-16.02 11.984c9.88 13.2 15.44 32.388 15.44 58.754h20ZM1248 190.945c-13.9-18.843-35.34-27.502-62.1-27.502v20c22.26 0 36.85 6.967 46 19.373l16.1-11.871Zm-62.1-27.502c-18.01 0-33.76 3.871-46.55 12.362l11.06 16.664c8.69-5.768 20.29-9.026 35.49-9.026v-20Zm-46.55 12.362c-12.6 8.364-21.83 20.218-27.78 35.087l18.57 7.427c4.6-11.498 11.39-19.957 20.27-25.85l-11.06-16.664Zm-27.79 35.122c-5.76 14.549-8.47 31.536-8.47 50.7h20c0-17.359 2.47-31.72 7.07-43.344l-18.6-7.356Zm321.16-49.495-3.59 9.333.05.019.05.017 3.49-9.369Zm28.13 82.177 8.78 4.789.01-.024.01-.024-8.8-4.741Zm-37.36 29.151-3.2-9.475-11.85 4.004 6.52 10.681 8.53-5.21Zm58.74 96.24v10h17.82l-9.28-15.21-8.54 5.21Zm-29 0-8.62 5.062 2.89 4.938h5.73v-10Zm-52.44-89.355 8.62-5.062-2.89-4.938h-5.73v10Zm-44.53 0v-10h-10v10h10Zm0 89.355v10h10v-10h-10Zm-24.9 0h-10v10h10v-10Zm0-214.16v-10h-10v10h10Zm24.9 21.533v-10h-10v10h10Zm0 82.178h-10v10h10v-10Zm72.51-10.694-6.52-7.586-.02.019-.02.019 6.56 7.548Zm-.73-62.402-5.72 8.205.02.015.02.015 5.68-8.235Zm-38.82-20.615c16.84 0 30.02 2.118 39.91 5.925l7.18-18.667c-12.95-4.982-28.78-7.258-47.09-7.258v20Zm40.01 5.961c9.84 3.67 16.53 9.021 20.84 15.781l16.87-10.75c-7.02-11.014-17.52-18.845-30.72-23.77l-6.99 18.739Zm20.84 15.781c4.37 6.857 6.93 16.17 6.93 28.609h20c0-15.1-3.11-28.443-10.06-39.359l-16.87 10.75Zm6.93 28.609c0 10.169-1.85 17.899-4.96 23.677l17.61 9.482c5.09-9.455 7.35-20.671 7.35-33.159h-20Zm-4.93 23.63c-3.41 6.251-7.78 11.171-13.1 14.929l11.53 16.34c7.96-5.617 14.33-12.904 19.13-21.692l-17.56-9.577Zm-13.1 14.929c-5.87 4.145-12.09 7.312-18.68 9.535l6.4 18.949c8.46-2.855 16.4-6.914 23.81-12.144l-11.53-16.34Zm-24.01 24.22 58.74 96.24 17.07-10.42-58.74-96.24-17.07 10.42Zm67.27 81.03h-29v20h29v-20Zm-20.38 4.938-52.44-89.355-17.25 10.123 52.45 89.356 17.24-10.124Zm-61.06-94.293h-44.53v20h44.53v-20Zm-54.53 10V369h20v-89.355h-20Zm10 79.355h-24.9v20h24.9v-20Zm-14.9 10V154.84h-20V369h20Zm-10-204.16h57.86v-20h-57.86v20Zm56.39 1.533h-31.49v20h31.49v-20Zm-41.49 10v82.178h20v-82.178h-20Zm10 92.178h33.98v-20h-33.98v20Zm33.98 0c18.51 0 34.24-3.719 45.09-13.146l-13.12-15.096c-5.56 4.831-15.52 8.242-31.97 8.242v20Zm45.04-13.107c11.08-9.516 15.94-23.138 15.94-39.081h-20c0 11.792-3.45 19.166-8.97 23.908l13.03 15.173Zm15.94-39.081c0-16.534-5.09-30.587-17.51-39.143l-11.35 16.47c5.16 3.553 8.86 10.106 8.86 22.673h20Zm-17.47-39.113c-11.19-7.795-27.09-10.877-46-10.877v20c17.42 0 28.38 2.973 34.57 7.287l11.43-16.41ZM1516.51 369h-10v10h10v-10Zm0-214.16v-10h-10v10h10Zm24.9 0h10v-10h-10v10Zm0 214.16v10h10v-10h-10Zm-14.9 0V154.84h-20V369h20Zm-10-204.16h24.9v-20h-24.9v20Zm14.9-10V369h20V154.84h-20Zm10 204.16h-24.9v20h24.9v-20Zm170.22-14.463-8.17-5.77v.009l-.01.008 8.18 5.753Zm-125.25 17.432h-10v6.36l5.77 2.697 4.23-9.057Zm0-23.877 3.82-9.242-13.82-5.712v14.954h10Zm26.81 8.496-2.42 9.701.04.011.04.01 2.34-9.722Zm60.35-.44 3.57 9.343.05-.02.05-.021-3.67-9.302Zm16.85-12.451-8.14-5.812-.01.014-.01.014 8.16 5.784Zm1.02-37.939-8.39 5.432.02.038.03.038 8.34-5.508Zm-16.11-13.477-4.84 8.753.07.037.07.037 4.7-8.827Zm-30.47-13.037 3.36-9.421-.01-.003-3.35 9.424Zm-24.02-10.547-4.91 8.713.05.026.04.026 4.82-8.765Zm-28.13-30.176-9.39 3.418.02.062.02.063 9.35-3.543Zm5.13-51.416-8.14-5.812v.009l-.01.01 8.15 5.793Zm24.17-18.75 3.87 9.223.02-.009.02-.009-3.91-9.205Zm67.24-3.369-2.17 9.762.01.002.01.003 2.15-9.767Zm26.8 8.643 9.4 3.412 3.18-8.754-8.51-3.792-4.07 9.134Zm-7.76 21.387-3.85 9.227 9.67 4.042 3.58-9.857-9.4-3.412Zm-24.61-8.057-2.43 9.701.02.004.01.003 2.4-9.708Zm-49.95.879 3.89 9.214.03-.015.04-.015-3.96-9.184Zm-14.65 47.461-8.47 5.315.04.059.04.058 8.39-5.432Zm15.24 13.33-4.91 8.712.07.041.07.04 4.77-8.793Zm27.83 12.012-3.43 9.395 3.43-9.395Zm32.08 14.648-5.08 8.617.04.021.03.021 5.01-8.659Zm20.07 18.75-8.51 5.26.02.025.01.025 8.48-5.31Zm-3.12 27.979c0 10.957-2.71 19.702-7.69 26.749l16.34 11.54c7.71-10.922 11.35-23.857 11.35-38.289h-20Zm-7.7 26.766c-5.02 7.142-12.21 12.817-22.01 16.874l7.65 18.481c12.85-5.318 23.24-13.217 30.72-23.849l-16.36-11.506Zm-22.01 16.874c-9.86 4.078-21.83 6.272-36.17 6.272v20c16.33 0 31.01-2.494 43.82-7.791l-7.65-18.481Zm-36.17 6.272c-7.79 0-15.09-.376-21.92-1.114l-2.15 19.884c7.62.824 15.65 1.23 24.07 1.23v-20Zm-21.92-1.114c-6.87-.742-13.07-1.799-18.65-3.147l-4.7 19.439c6.54 1.582 13.61 2.772 21.2 3.592l2.15-19.884Zm-18.65-3.147c-5.54-1.342-10.21-2.948-14.08-4.757l-8.47 18.114c5.31 2.487 11.29 4.494 17.85 6.082l4.7-19.439Zm-8.32 4.3v-23.877h-20v23.877h20Zm-13.82-14.636c7.91 3.269 17.35 6.241 28.21 8.956l4.85-19.403c-10.24-2.558-18.68-5.25-25.42-8.036l-7.64 18.483Zm28.29 8.977c11.36 2.735 23.18 4.086 35.45 4.086v-20c-10.79 0-21.03-1.187-30.77-3.53l-4.68 19.444Zm35.45 4.086c11.56 0 21.92-1.515 30.81-4.905l-7.13-18.685c-5.96 2.274-13.76 3.59-23.68 3.59v20Zm30.91-4.946c8.85-3.49 16.19-8.707 21.34-15.968l-16.32-11.569c-2.47 3.481-6.36 6.564-12.36 8.934l7.34 18.603Zm21.32-15.94c5.27-7.386 7.72-16.03 7.72-25.442h-20c0 5.823-1.46 10.265-4 13.817l16.28 11.625Zm7.72-25.442c0-8.789-1.95-16.933-6.49-23.819l-16.69 11.017c1.9 2.88 3.18 6.943 3.18 12.802h20Zm-6.44-23.743c-4.46-6.895-11.4-12.395-19.81-16.87l-9.4 17.653c6.63 3.532 10.43 7.017 12.42 10.082l16.79-10.865Zm-19.67-16.796c-8.1-4.474-18.82-9.03-31.95-13.705l-6.71 18.841c12.65 4.504 22.24 8.639 28.98 12.369l9.68-17.505Zm-31.96-13.709c-8.68-3.08-16.18-6.387-22.56-9.888l-9.63 17.53c7.5 4.116 16.01 7.841 25.5 11.206l6.69-18.848Zm-22.46-9.835c-6.23-3.509-11.23-7.33-15.13-11.397l-14.43 13.851c5.47 5.699 12.1 10.667 19.74 14.971l9.82-17.425Zm-15.13-11.397c-3.74-3.892-6.58-8.4-8.55-13.609l-18.71 7.085c2.91 7.682 7.2 14.502 12.83 20.375l14.43-13.851Zm-8.51-13.484c-1.87-5.147-2.91-11.329-2.91-18.702h-20c0 9.229 1.3 17.793 4.12 25.537l18.79-6.835Zm-2.91-18.702c0-9.669 2.41-17.333 6.79-23.503l-16.3-11.587c-7.14 10.041-10.49 21.908-10.49 35.09h20Zm6.78-23.484c4.67-6.539 11.17-11.684 19.9-15.34l-7.73-18.445c-11.79 4.938-21.4 12.292-28.45 22.16l16.28 11.625Zm19.94-15.358c8.9-3.78 19.4-5.796 31.69-5.796v-20c-14.48 0-27.71 2.378-39.51 7.387l7.82 18.409Zm31.69-5.796c10.8 0 20.61 1.016 29.47 2.984l4.34-19.524c-10.48-2.328-21.77-3.46-33.81-3.46v20Zm29.49 2.989c9.18 2.021 17.47 4.704 24.88 8.009l8.14-18.267c-8.79-3.921-18.38-6.999-28.72-9.275l-4.3 19.533Zm19.55-4.536-7.76 21.386 18.8 6.825 7.76-21.387-18.8-6.824Zm5.49 15.571c-8.21-3.433-16.91-6.274-26.06-8.537l-4.8 19.416c8.23 2.034 15.94 4.564 23.16 7.576l7.7-18.455Zm-26.03-8.53c-9.42-2.354-19.12-3.522-29.09-3.522v20c8.39 0 16.46.981 24.23 2.924l4.86-19.402Zm-29.09-3.522c-10.12 0-19.31 1.5-27.25 4.918l7.92 18.368c4.76-2.051 11.09-3.286 19.33-3.286v-20Zm-27.18 4.888c-7.75 3.272-14.18 8.166-18.74 14.87l16.54 11.246c2.08-3.061 5.23-5.687 9.98-7.688l-7.78-18.428Zm-18.74 14.87c-4.6 6.768-6.71 14.603-6.71 23.055h20c0-5.025 1.21-8.811 3.25-11.809l-16.54-11.246Zm-6.71 23.055c0 8.881 1.85 17.103 6.22 24.065l16.94-10.63c-1.88-3-3.16-7.278-3.16-13.435h-20Zm6.3 24.182c4.35 6.724 10.83 12.169 18.72 16.61l9.81-17.425c-5.98-3.371-9.65-6.813-11.74-10.05l-16.79 10.865Zm18.86 16.691c7.63 4.13 17.4 8.326 29.17 12.614l6.85-18.791c-11.28-4.11-20.05-7.922-26.49-11.409l-9.53 17.586Zm29.17 12.614c12.2 4.442 22.3 9.082 30.43 13.87l10.15-17.234c-9.45-5.564-20.73-10.69-33.73-15.427l-6.85 18.791Zm30.5 13.912c7.6 4.387 12.98 9.547 16.57 15.351l17.01-10.52c-5.59-9.04-13.59-16.38-23.57-22.149l-10.01 17.318Zm16.6 15.401c3.33 5.309 5.36 12.647 5.36 22.669h20c0-12.635-2.56-23.95-8.41-33.289l-16.95 10.62Z" mask="url(#a)"/></svg>