<svg width="750" height="750" viewBox="0 0 750 750" fill="none" xmlns="http://www.w3.org/2000/svg">
<g id="Vector (vectorized)">
<path id="Vector" fill-rule="evenodd" clip-rule="evenodd" d="M347.02 132.809C314.76 137.08 297.104 142.146 269.68 155.001C220.123 178.23 181.935 214.87 155.164 264.878C119.761 331.008 121.841 417.381 160.599 490.587C227.324 616.61 381.698 657.696 504.573 582.133C534.195 563.917 567.053 529.711 585.765 497.606C590.844 488.896 591.02 487.634 587.899 482.409C586.025 479.275 583.469 476.723 582.218 476.738C580.967 476.756 575.233 484.293 569.476 493.49C558.07 511.711 537.223 536.818 533.524 536.787C532.249 536.779 526.515 530.253 520.781 522.284C515.047 514.318 504.698 500.209 497.782 490.935C490.866 481.658 476.812 462.671 466.551 448.741C456.288 434.811 446.047 421.493 443.793 419.143C441.537 416.795 439.692 414.081 439.692 413.112C439.692 410.67 432.121 402.49 429.86 402.49C428.843 402.49 426.836 404.939 425.402 407.93C423.419 412.068 423.482 414.161 425.667 416.663C428 419.334 427.675 421.109 423.947 426.089C419.372 432.203 390.847 476.655 380.088 494.441C376.974 499.588 373.211 503.773 371.729 503.74C370.244 503.705 363.344 494.536 356.394 483.367C349.446 472.197 337.609 454.271 330.093 443.534C319.142 427.891 316.683 422.801 317.712 417.903C318.65 413.445 317.696 410.685 314.179 407.692C309.494 403.704 309.29 403.704 306.761 407.668C296.231 424.169 220.881 534.149 218.483 536.523C215.962 539.014 213.817 537.552 205.567 527.713C192.426 512.043 173.259 483.645 173.259 479.844C173.259 478.174 182.927 464.299 194.742 449.01C206.558 433.72 235.229 395.938 258.457 365.049C301.842 307.356 319.345 285.521 304.089 308.129C296.191 319.835 295.695 321.626 295.86 337.862C296.256 377.129 318.05 411.681 356.282 433.659L370.853 442.032L382.683 436.026C398.787 427.851 425.502 401.864 433.09 386.992C444.118 365.377 445.292 360.525 445.095 337.404C444.924 317.214 444.222 313.717 437.77 300.863C430.84 287.061 404.361 259.332 398.108 259.332C394.895 259.332 396.859 262.731 409.576 279.154C414.736 285.816 421.788 296.718 425.249 303.381C430.884 314.226 431.544 317.921 431.563 338.659C431.581 360.338 431.104 362.749 424.089 376.303C415.382 393.123 399.294 410.245 383.208 419.81C372.625 426.102 371.488 426.329 365.432 423.354C356.211 418.819 337.354 403.01 332.313 395.583C328.546 390.033 328.476 389.275 331.733 389.275C333.77 389.275 335.436 388.364 335.436 387.249C335.436 383.981 364.266 340.128 366.979 339.269C368.341 338.838 377.699 350.389 387.777 364.939C397.853 379.49 407.424 391.412 409.043 391.436C410.665 391.458 413.119 389.123 414.497 386.247C416.735 381.578 414.775 377.858 396.243 351.559C384.823 335.358 374.254 319.873 372.753 317.146C371.254 314.419 369.129 312.19 368.033 312.19C366.94 312.19 356.303 327.557 344.4 346.337C332.496 365.119 321.818 380.188 320.673 379.825C319.528 379.464 316.482 374.255 313.901 368.253C307.282 352.847 307.456 322.608 314.272 304.687C319.952 289.75 320.013 289.439 316.901 291.267C311.927 294.19 315.231 288.785 331.539 267.327C340.864 255.055 354.489 236.839 361.817 226.846C369.145 216.854 375.897 208.676 376.821 208.676C377.745 208.676 382.627 213.868 387.668 220.211C392.707 226.554 398.08 233.245 399.605 235.077C402.144 238.127 445.318 292.741 506.709 370.555C520.088 387.513 531.635 401.884 532.37 402.49C533.95 403.794 552.179 426.723 573.519 454.247C574.457 455.458 579.339 462.187 584.364 469.202C593.307 481.683 593.561 481.846 596.444 476.91C603.285 465.195 605.22 468.153 531.151 377.162C506.081 346.366 426.22 245.981 408.415 222.884C382.421 189.165 376.791 182.249 375.341 182.261C374.418 182.269 371.889 185.238 369.72 188.861C367.554 192.484 351.98 213.537 335.114 235.65C318.247 257.76 298.408 283.779 291.025 293.47C283.639 303.161 276.769 312.08 275.755 313.292C273.262 316.272 248.078 349.407 238.574 362.212C227.701 376.86 197.923 415.698 180.675 437.729C172.612 448.025 164.851 456.449 163.428 456.449C159.457 456.449 150.795 423.063 147.818 396.279C139.871 324.788 166.802 254.78 220.677 206.868C249.364 181.36 283.905 162.985 321.535 153.219C348.111 146.324 403.74 145.859 430.425 152.312C520.818 174.167 588.05 245.571 601.874 334.398C605.991 360.84 603.811 407.276 597.405 429.593L592.47 446.785L597.329 453.269C600 456.835 602.593 459.753 603.093 459.753C605.178 459.753 613.864 428.688 617.23 409.19C625.876 359.115 613.811 294.811 587.593 251.249C562.472 209.513 526.814 177.246 482.554 156.201C452.718 142.016 437.693 137.776 399.148 132.668C372.15 129.092 375.181 129.083 347.02 132.809ZM438.277 437.297C436.933 438.141 432.272 444.926 427.918 452.377C407.577 487.173 373.615 541.243 372.099 541.243C371.17 541.243 366.615 535.05 361.977 527.478C331.467 477.672 306.306 437.854 305.317 437.81C303.966 437.751 301.061 441.936 274.951 481.544C229.77 550.081 229.182 551.064 231.661 553.905C236.172 559.076 262.437 575.88 276.357 582.497C302.537 594.945 322.186 600.23 352.395 602.957C402.753 607.499 452.071 595.11 497.694 566.458C524.752 549.467 526.379 556.704 481.11 492.655C459.332 461.839 441.335 436.434 441.115 436.196C440.897 435.96 439.618 436.456 438.277 437.297Z" stroke="#2E3A48" stroke-width="10"/>
</g>
</svg>
