<svg xmlns="http://www.w3.org/2000/svg" xmlns:xlink="http://www.w3.org/1999/xlink" viewBox="28.441001892089844 28.87900161743164 301.7699890136719 168.90200805664062" width="357.3314402662099" height="200"><path d="M 106.117,40.512 C 106.117,46.912 106.117,46.912 106.117,53.313" stroke-width="5.387" stroke="black" fill="none" stroke-linecap="round"></path><path d="M 106.117,53.313 C 106.117,59.916 106.117,59.916 106.117,66.520" stroke-width="3.613" stroke="black" fill="none" stroke-linecap="round"></path><path d="M 106.117,66.520 C 106.117,74.523 106.117,74.523 106.117,82.527" stroke-width="3.080" stroke="black" fill="none" stroke-linecap="round"></path><path d="M 106.117,82.527 C 106.117,90.996 106.117,90.996 106.117,99.465" stroke-width="2.828" stroke="black" fill="none" stroke-linecap="round"></path><path d="M 106.117,99.465 C 106.117,107.248 106.117,107.248 106.117,115.031" stroke-width="2.903" stroke="black" fill="none" stroke-linecap="round"></path><path d="M 106.117,115.031 C 106.117,121.885 106.117,121.885 106.117,128.738" stroke-width="3.048" stroke="black" fill="none" stroke-linecap="round"></path><path d="M 106.117,128.738 C 106.117,134.607 106.117,134.607 106.117,140.477" stroke-width="3.183" stroke="black" fill="none" stroke-linecap="round"></path><path d="M 106.117,140.477 C 106.229,145.938 106.117,145.936 106.117,151.395" stroke-width="3.349" stroke="black" fill="none" stroke-linecap="round"></path><path d="M 106.117,151.395 C 106.130,155.649 106.030,155.630 105.719,159.859" stroke-width="3.622" stroke="black" fill="none" stroke-linecap="round"></path><path d="M 105.719,159.859 C 105.335,163.058 105.407,163.052 104.672,166.199" stroke-width="3.887" stroke="black" fill="none" stroke-linecap="round"></path><path d="M 104.672,166.199 C 103.820,173.504 103.876,169.972 102.801,173.688" stroke-width="4.350" stroke="black" fill="none" stroke-linecap="round"></path><path d="M 102.801,173.688 C 101.160,170.376 101.865,173.856 100.762,166.902" stroke-width="5.045" stroke="black" fill="none" stroke-linecap="round"></path><path d="M 100.762,166.902 C 100.680,162.558 100.275,162.656 101.031,158.246" stroke-width="4.044" stroke="black" fill="none" stroke-linecap="round"></path><path d="M 101.031,158.246 C 101.506,152.151 101.526,152.171 102.453,146.129" stroke-width="3.407" stroke="black" fill="none" stroke-linecap="round"></path><path d="M 102.453,146.129 C 103.798,138.551 103.648,138.532 105.316,131.008" stroke-width="3.075" stroke="black" fill="none" stroke-linecap="round"></path><path d="M 105.316,131.008 C 107.126,122.481 107.036,122.463 108.930,113.953" stroke-width="2.860" stroke="black" fill="none" stroke-linecap="round"></path><path d="M 108.930,113.953 C 110.665,105.663 110.682,105.667 112.430,97.379" stroke-width="2.769" stroke="black" fill="none" stroke-linecap="round"></path><path d="M 112.430,97.379 C 113.708,91.496 113.684,91.491 114.969,85.609" stroke-width="3.116" stroke="black" fill="none" stroke-linecap="round"></path><path d="M 114.969,85.609 C 115.816,81.766 115.792,81.762 116.598,77.910" stroke-width="3.593" stroke="black" fill="none" stroke-linecap="round"></path><path d="M 116.598,77.910 C 117.330,74.993 117.193,74.977 117.723,72.031" stroke-width="3.929" stroke="black" fill="none" stroke-linecap="round"></path><path d="M 117.723,72.031 C 118.083,68.907 118.135,68.925 118.207,65.773" stroke-width="4.469" stroke="black" fill="none" stroke-linecap="round"></path><path d="M 118.207,65.773 C 118.369,62.843 118.323,62.856 118.203,59.930" stroke-width="4.681" stroke="black" fill="none" stroke-linecap="round"></path><path d="M 118.203,59.930 C 117.755,56.195 117.990,56.181 117.449,52.449" stroke-width="4.629" stroke="black" fill="none" stroke-linecap="round"></path><path d="M 117.449,52.449 C 117.192,49.538 117.212,49.541 117.117,46.621" stroke-width="4.733" stroke="black" fill="none" stroke-linecap="round"></path><path d="M 117.117,46.621 C 117.154,43.062 117.026,43.065 117.117,39.504" stroke-width="4.865" stroke="black" fill="none" stroke-linecap="round"></path><path d="M 117.117,39.504 C 117.495,33.885 117.088,36.691 116.984,33.879" stroke-width="4.997" stroke="black" fill="none" stroke-linecap="round"></path><path d="M 116.984,33.879 C 115.559,36.595 116.446,33.873 115.020,39.480" stroke-width="5.280" stroke="black" fill="none" stroke-linecap="round"></path><path d="M 115.020,39.480 C 114.827,42.624 114.448,42.540 114.762,45.770" stroke-width="4.399" stroke="black" fill="none" stroke-linecap="round"></path><path d="M 114.762,45.770 C 114.732,49.789 114.678,49.788 114.723,53.809" stroke-width="3.976" stroke="black" fill="none" stroke-linecap="round"></path><path d="M 114.723,53.809 C 114.720,58.592 114.712,58.592 114.723,63.375" stroke-width="3.581" stroke="black" fill="none" stroke-linecap="round"></path><path d="M 114.723,63.375 C 114.458,69.014 114.726,69.002 114.734,74.629" stroke-width="3.496" stroke="black" fill="none" stroke-linecap="round"></path><path d="M 114.734,74.629 C 114.990,81.165 115.054,81.132 115.914,87.609" stroke-width="3.209" stroke="black" fill="none" stroke-linecap="round"></path><path d="M 115.914,87.609 C 117.386,96.060 117.130,96.091 119.016,104.480" stroke-width="2.911" stroke="black" fill="none" stroke-linecap="round"></path><path d="M 119.016,104.480 C 120.749,112.953 120.659,112.970 122.461,121.430" stroke-width="2.824" stroke="black" fill="none" stroke-linecap="round"></path><path d="M 122.461,121.430 C 123.951,129.034 123.995,129.025 125.508,136.625" stroke-width="2.847" stroke="black" fill="none" stroke-linecap="round"></path><path d="M 125.508,136.625 C 127.014,144.668 127.150,144.636 128.859,152.633" stroke-width="2.861" stroke="black" fill="none" stroke-linecap="round"></path><path d="M 128.859,152.633 C 130.698,159.880 130.547,159.915 132.574,167.117" stroke-width="2.952" stroke="black" fill="none" stroke-linecap="round"></path><path d="M 132.574,167.117 C 134.068,172.508 133.977,172.530 135.418,177.934" stroke-width="3.194" stroke="black" fill="none" stroke-linecap="round"></path><path d="M 135.418,177.934 C 136.372,182.045 136.437,182.029 137.313,186.160" stroke-width="3.569" stroke="black" fill="none" stroke-linecap="round"></path><path d="M 137.313,186.160 C 138.205,189.445 138.069,189.469 138.813,192.781" stroke-width="3.873" stroke="black" fill="none" stroke-linecap="round"></path><path d="M 123.891,49.441 C 123.891,54.182 123.891,54.182 123.891,58.922" stroke-width="5.443" stroke="black" fill="none" stroke-linecap="round"></path><path d="M 123.891,58.922 C 123.891,62.492 123.891,62.492 123.891,66.063" stroke-width="4.313" stroke="black" fill="none" stroke-linecap="round"></path><path d="M 123.891,66.063 C 123.891,70.162 123.891,70.162 123.891,74.262" stroke-width="3.879" stroke="black" fill="none" stroke-linecap="round"></path><path d="M 123.891,74.262 C 123.891,78.342 123.891,78.342 123.891,82.422" stroke-width="3.824" stroke="black" fill="none" stroke-linecap="round"></path><path d="M 123.891,82.422 C 123.915,86.336 123.891,86.336 123.891,90.250" stroke-width="3.843" stroke="black" fill="none" stroke-linecap="round"></path><path d="M 123.891,90.250 C 123.722,94.326 123.866,94.324 123.793,98.398" stroke-width="3.761" stroke="black" fill="none" stroke-linecap="round"></path><path d="M 123.793,98.398 C 123.797,102.851 123.870,102.836 124.188,107.270" stroke-width="3.715" stroke="black" fill="none" stroke-linecap="round"></path><path d="M 124.188,107.270 C 124.799,112.380 124.640,112.392 125.480,117.480" stroke-width="3.618" stroke="black" fill="none" stroke-linecap="round"></path><path d="M 125.480,117.480 C 126.310,123.225 126.249,123.233 127.086,128.977" stroke-width="3.577" stroke="black" fill="none" stroke-linecap="round"></path><path d="M 127.086,128.977 C 127.724,133.856 127.744,133.854 128.348,138.738" stroke-width="3.510" stroke="black" fill="none" stroke-linecap="round"></path><path d="M 128.348,138.738 C 128.749,142.341 128.807,142.333 129.250,145.930" stroke-width="3.803" stroke="black" fill="none" stroke-linecap="round"></path><path d="M 129.250,145.930 C 129.608,148.495 129.608,148.493 130.066,151.043" stroke-width="4.145" stroke="black" fill="none" stroke-linecap="round"></path><path d="M 130.066,151.043 C 130.752,153.606 130.534,153.638 131.102,156.215" stroke-width="5.027" stroke="black" fill="none" stroke-linecap="round"></path><path d="M 131.102,156.215 C 131.478,159.296 131.512,159.277 131.586,162.387" stroke-width="5.116" stroke="black" fill="none" stroke-linecap="round"></path><path d="M 131.586,162.387 C 131.586,166.258 131.721,166.253 131.586,170.129" stroke-width="4.711" stroke="black" fill="none" stroke-linecap="round"></path><path d="M 131.586,170.129 C 132.350,175.757 131.586,173.121 131.586,176.113" stroke-width="4.802" stroke="black" fill="none" stroke-linecap="round"></path><path d="M 131.586,176.113 C 129.442,174.033 130.887,176.439 128.660,171.492" stroke-width="5.243" stroke="black" fill="none" stroke-linecap="round"></path><path d="M 128.660,171.492 C 128.152,168.078 127.680,168.304 128.063,164.656" stroke-width="4.836" stroke="black" fill="none" stroke-linecap="round"></path><path d="M 128.063,164.656 C 127.937,161.919 127.992,161.959 128.340,159.254" stroke-width="4.423" stroke="black" fill="none" stroke-linecap="round"></path><path d="M 128.340,159.254 C 128.995,155.628 128.887,155.634 129.961,152.086" stroke-width="4.064" stroke="black" fill="none" stroke-linecap="round"></path><path d="M 129.961,152.086 C 131.124,148.576 130.933,148.522 132.215,145.043" stroke-width="3.962" stroke="black" fill="none" stroke-linecap="round"></path><path d="M 132.215,145.043 C 133.218,141.966 133.169,141.954 134.051,138.844" stroke-width="3.993" stroke="black" fill="none" stroke-linecap="round"></path><path d="M 134.051,138.844 C 134.809,135.908 134.831,135.917 135.441,132.945" stroke-width="4.246" stroke="black" fill="none" stroke-linecap="round"></path><path d="M 135.441,132.945 C 136.022,129.991 136.069,130.002 136.570,127.031" stroke-width="4.134" stroke="black" fill="none" stroke-linecap="round"></path><path d="M 136.570,127.031 C 137.190,124.034 137.127,124.024 137.652,121.012" stroke-width="4.136" stroke="black" fill="none" stroke-linecap="round"></path><path d="M 137.652,121.012 C 138.168,117.576 138.177,117.581 138.543,114.125" stroke-width="4.035" stroke="black" fill="none" stroke-linecap="round"></path><path d="M 138.543,114.125 C 138.948,110.274 138.961,110.277 139.238,106.414" stroke-width="3.861" stroke="black" fill="none" stroke-linecap="round"></path><path d="M 139.238,106.414 C 139.509,102.711 139.516,102.713 139.680,99.004" stroke-width="3.899" stroke="black" fill="none" stroke-linecap="round"></path><path d="M 139.680,99.004 C 139.845,95.550 139.839,95.551 139.898,92.094" stroke-width="3.968" stroke="black" fill="none" stroke-linecap="round"></path><path d="M 139.898,92.094 C 139.898,88.447 139.955,88.448 139.898,84.801" stroke-width="3.895" stroke="black" fill="none" stroke-linecap="round"></path><path d="M 139.898,84.801 C 139.898,81.230 139.898,81.230 139.898,77.660" stroke-width="3.941" stroke="black" fill="none" stroke-linecap="round"></path><path d="M 139.898,77.660 C 139.898,74.604 139.898,74.604 139.898,71.547" stroke-width="4.076" stroke="black" fill="none" stroke-linecap="round"></path><path d="M 139.898,71.547 C 139.898,68.547 139.898,68.547 139.898,65.547" stroke-width="4.087" stroke="black" fill="none" stroke-linecap="round"></path><path d="M 139.898,65.547 C 139.934,62.734 139.898,62.734 139.898,59.922" stroke-width="4.184" stroke="black" fill="none" stroke-linecap="round"></path><path d="M 139.898,59.922 C 141.083,55.204 139.848,55.921 139.727,51.922" stroke-width="4.418" stroke="black" fill="none" stroke-linecap="round"></path><path d="M 139.727,51.922 C 136.232,48.397 138.874,49.861 135.480,49.234" stroke-width="5.127" stroke="black" fill="none" stroke-linecap="round"></path><path d="M 135.480,49.234 C 135.625,52.563 134.492,50.336 136.246,55.801" stroke-width="5.335" stroke="black" fill="none" stroke-linecap="round"></path><path d="M 136.246,55.801 C 137.134,59.286 136.922,59.324 138.074,62.758" stroke-width="4.286" stroke="black" fill="none" stroke-linecap="round"></path><path d="M 138.074,62.758 C 139.364,67.643 139.394,67.634 140.766,72.496" stroke-width="3.663" stroke="black" fill="none" stroke-linecap="round"></path><path d="M 140.766,72.496 C 142.586,78.417 142.485,78.446 144.316,84.363" stroke-width="3.425" stroke="black" fill="none" stroke-linecap="round"></path><path d="M 144.316,84.363 C 146.234,90.671 146.158,90.690 147.910,97.043" stroke-width="3.241" stroke="black" fill="none" stroke-linecap="round"></path><path d="M 147.910,97.043 C 149.673,103.490 149.609,103.498 151.066,110.016" stroke-width="3.117" stroke="black" fill="none" stroke-linecap="round"></path><path d="M 151.066,110.016 C 152.479,116.557 152.462,116.549 153.488,123.160" stroke-width="3.139" stroke="black" fill="none" stroke-linecap="round"></path><path d="M 153.488,123.160 C 154.245,129.226 154.411,129.200 154.930,135.301" stroke-width="3.174" stroke="black" fill="none" stroke-linecap="round"></path><path d="M 154.930,135.301 C 155.446,139.986 155.458,139.984 155.914,144.676" stroke-width="3.472" stroke="black" fill="none" stroke-linecap="round"></path><path d="M 155.914,144.676 C 156.338,148.297 156.276,148.300 156.590,151.930" stroke-width="3.785" stroke="black" fill="none" stroke-linecap="round"></path><path d="M 156.590,151.930 C 156.695,154.946 156.799,154.940 156.836,157.961" stroke-width="3.990" stroke="black" fill="none" stroke-linecap="round"></path><path d="M 156.836,157.961 C 156.967,161.753 157.013,161.749 157.227,165.535" stroke-width="4.398" stroke="black" fill="none" stroke-linecap="round"></path><path d="M 157.227,165.535 C 159.039,170.679 157.412,168.243 157.727,170.941" stroke-width="4.705" stroke="black" fill="none" stroke-linecap="round"></path><path d="M 157.727,170.941 C 153.890,169.300 155.751,171.336 150.652,166.848" stroke-width="5.201" stroke="black" fill="none" stroke-linecap="round"></path><path d="M 150.652,166.848 C 147.132,163.300 146.706,163.858 143.359,160.059" stroke-width="4.527" stroke="black" fill="none" stroke-linecap="round"></path><path d="M 143.359,160.059 C 141.519,158.257 141.460,158.427 139.309,157.102" stroke-width="4.397" stroke="black" fill="none" stroke-linecap="round"></path><path d="M 139.309,157.102 C 134.647,154.372 134.668,154.675 129.656,152.895" stroke-width="4.303" stroke="black" fill="none" stroke-linecap="round"></path><path d="M 129.656,152.895 C 126.145,152.309 126.300,151.901 122.613,152.160" stroke-width="4.065" stroke="black" fill="none" stroke-linecap="round"></path><path d="M 122.613,152.160 C 118.013,151.811 118.054,151.969 113.473,152.215" stroke-width="3.771" stroke="black" fill="none" stroke-linecap="round"></path><path d="M 113.473,152.215 C 107.653,152.672 107.722,152.727 102.031,153.992" stroke-width="3.401" stroke="black" fill="none" stroke-linecap="round"></path><path d="M 102.031,153.992 C 95.532,156.025 95.419,155.545 89.004,157.961" stroke-width="3.202" stroke="black" fill="none" stroke-linecap="round"></path><path d="M 89.004,157.961 C 82.203,160.076 82.180,159.984 75.328,161.910" stroke-width="3.102" stroke="black" fill="none" stroke-linecap="round"></path><path d="M 75.328,161.910 C 69.954,163.350 69.961,163.342 64.520,164.492" stroke-width="3.251" stroke="black" fill="none" stroke-linecap="round"></path><path d="M 64.520,164.492 C 60.590,165.230 60.611,165.313 56.641,165.836" stroke-width="3.633" stroke="black" fill="none" stroke-linecap="round"></path><path d="M 56.641,165.836 C 53.299,166.191 53.322,166.345 49.984,166.723" stroke-width="3.904" stroke="black" fill="none" stroke-linecap="round"></path><path d="M 49.984,166.723 C 46.095,167.494 46.072,167.350 42.188,168.152" stroke-width="4.325" stroke="black" fill="none" stroke-linecap="round"></path><path d="M 42.188,168.152 C 36.238,168.955 39.580,168.592 36.953,168.918" stroke-width="4.691" stroke="black" fill="none" stroke-linecap="round"></path><path d="M 36.953,168.918 C 41.553,168.603 38.197,168.853 46.105,167.949" stroke-width="5.203" stroke="black" fill="none" stroke-linecap="round"></path><path d="M 46.105,167.949 C 52.186,166.952 52.201,167.074 58.250,165.859" stroke-width="3.598" stroke="black" fill="none" stroke-linecap="round"></path><path d="M 58.250,165.859 C 67.220,164.157 67.235,164.240 76.203,162.523" stroke-width="2.858" stroke="black" fill="none" stroke-linecap="round"></path><path d="M 76.203,162.523 C 86.855,160.576 86.857,160.586 97.523,158.719" stroke-width="2.578" stroke="black" fill="none" stroke-linecap="round"></path><path d="M 97.523,158.719 C 108.836,156.866 108.816,156.753 120.125,154.879" stroke-width="2.447" stroke="black" fill="none" stroke-linecap="round"></path><path d="M 120.125,154.879 C 131.746,152.754 131.760,152.831 143.371,150.648" stroke-width="2.381" stroke="black" fill="none" stroke-linecap="round"></path><path d="M 143.371,150.648 C 155.278,148.562 155.266,148.494 167.164,146.359" stroke-width="2.281" stroke="black" fill="none" stroke-linecap="round"></path><path d="M 167.164,146.359 C 179.099,144.326 179.062,144.154 190.938,141.832" stroke-width="2.309" stroke="black" fill="none" stroke-linecap="round"></path><path d="M 190.938,141.832 C 202.970,139.253 202.972,139.297 214.910,136.301" stroke-width="2.302" stroke="black" fill="none" stroke-linecap="round"></path><path d="M 214.910,136.301 C 225.020,133.708 225.039,133.796 235.074,130.918" stroke-width="2.397" stroke="black" fill="none" stroke-linecap="round"></path><path d="M 235.074,130.918 C 242.978,128.695 242.984,128.723 250.840,126.332" stroke-width="2.704" stroke="black" fill="none" stroke-linecap="round"></path><path d="M 250.840,126.332 C 257.818,124.218 257.822,124.234 264.762,121.996" stroke-width="2.923" stroke="black" fill="none" stroke-linecap="round"></path><path d="M 264.762,121.996 C 270.041,120.381 270.015,120.315 275.234,118.527" stroke-width="3.196" stroke="black" fill="none" stroke-linecap="round"></path><path d="M 275.234,118.527 C 279.253,117.068 279.256,117.092 283.191,115.418" stroke-width="3.561" stroke="black" fill="none" stroke-linecap="round"></path><path d="M 283.191,115.418 C 286.048,114.151 286.072,114.211 288.871,112.813" stroke-width="3.930" stroke="black" fill="none" stroke-linecap="round"></path><path d="M 288.871,112.813 C 292.967,110.646 293.048,110.832 297.191,108.781" stroke-width="4.262" stroke="black" fill="none" stroke-linecap="round"></path><path d="M 297.191,108.781 C 299.949,107.614 299.922,107.576 302.781,106.672" stroke-width="4.601" stroke="black" fill="none" stroke-linecap="round"></path><path d="M 176.086,136.352 C 173.320,136.156 173.318,136.227 170.551,136.102" stroke-width="5.534" stroke="black" fill="none" stroke-linecap="round"></path><path d="M 170.551,136.102 C 167.018,136.102 167.019,136.031 163.484,136.102" stroke-width="5.214" stroke="black" fill="none" stroke-linecap="round"></path><path d="M 163.484,136.102 C 160.778,135.982 160.783,136.102 158.082,136.102" stroke-width="4.984" stroke="black" fill="none" stroke-linecap="round"></path><path d="M 158.082,136.102 C 153.373,135.060 155.346,136.223 152.621,136.582" stroke-width="5.137" stroke="black" fill="none" stroke-linecap="round"></path><path d="M 152.621,136.582 C 152.842,140.491 151.719,138.409 154.773,142.801" stroke-width="5.373" stroke="black" fill="none" stroke-linecap="round"></path><path d="M 154.773,142.801 C 157.030,144.268 156.279,144.602 159.496,144.805" stroke-width="5.009" stroke="black" fill="none" stroke-linecap="round"></path><path d="M 159.496,144.805 C 162.456,145.686 162.174,145.387 165.063,145.039" stroke-width="5.141" stroke="black" fill="none" stroke-linecap="round"></path><path d="M 165.063,145.039 C 167.806,143.515 167.999,144.311 170.582,142.055" stroke-width="5.032" stroke="black" fill="none" stroke-linecap="round"></path><path d="M 170.582,142.055 C 173.095,140.993 172.978,140.795 175.406,139.598" stroke-width="4.918" stroke="black" fill="none" stroke-linecap="round"></path><path d="M 175.406,139.598 C 179.489,138.174 177.547,138.305 179.484,136.680" stroke-width="5.178" stroke="black" fill="none" stroke-linecap="round"></path><path d="M 179.484,136.680 C 175.273,133.260 179.479,135.140 175.387,133.531" stroke-width="5.341" stroke="black" fill="none" stroke-linecap="round"></path><path d="M 175.387,133.531 C 178.376,138.280 175.527,133.864 179.992,137.887" stroke-width="5.422" stroke="black" fill="none" stroke-linecap="round"></path><path d="M 179.992,137.887 C 181.304,134.996 181.565,137.504 181.766,131.980" stroke-width="5.419" stroke="black" fill="none" stroke-linecap="round"></path><path d="M 181.766,131.980 C 181.766,129.143 182.191,129.205 181.766,126.305" stroke-width="5.156" stroke="black" fill="none" stroke-linecap="round"></path><path d="M 181.766,126.305 C 182.100,123.582 181.766,123.625 181.766,120.945" stroke-width="5.309" stroke="black" fill="none" stroke-linecap="round"></path><path d="M 181.766,120.945 C 180.121,115.961 181.432,118.319 180.430,115.777" stroke-width="5.239" stroke="black" fill="none" stroke-linecap="round"></path><path d="M 180.430,115.777 C 181.853,117.928 180.726,115.601 182.977,120.227" stroke-width="5.432" stroke="black" fill="none" stroke-linecap="round"></path><path d="M 182.977,120.227 C 184.477,122.941 184.312,122.961 185.348,125.844" stroke-width="5.132" stroke="black" fill="none" stroke-linecap="round"></path><path d="M 185.348,125.844 C 186.058,128.704 186.184,128.631 186.391,131.605" stroke-width="5.064" stroke="black" fill="none" stroke-linecap="round"></path><path d="M 186.391,131.605 C 186.543,136.967 186.685,134.169 186.602,136.773" stroke-width="5.173" stroke="black" fill="none" stroke-linecap="round"></path><path d="M 186.602,136.773 C 186.635,133.772 186.670,136.549 186.645,130.770" stroke-width="5.398" stroke="black" fill="none" stroke-linecap="round"></path><path d="M 186.645,130.770 C 186.565,127.291 186.656,127.293 186.645,123.816" stroke-width="5.077" stroke="black" fill="none" stroke-linecap="round"></path><path d="M 186.645,123.816 C 186.141,120.932 186.706,121.123 186.926,118.434" stroke-width="4.905" stroke="black" fill="none" stroke-linecap="round"></path><path d="M 186.926,118.434 C 187.733,114.851 187.803,115.639 189.969,113.230" stroke-width="5.077" stroke="black" fill="none" stroke-linecap="round"></path><path d="M 189.969,113.230 C 193.005,111.756 192.229,111.593 195.918,111.918" stroke-width="5.033" stroke="black" fill="none" stroke-linecap="round"></path><path d="M 195.918,111.918 C 199.657,111.995 198.466,112.059 200.891,113.836" stroke-width="5.306" stroke="black" fill="none" stroke-linecap="round"></path><path d="M 200.891,113.836 C 201.657,116.851 202.214,115.811 201.031,119.551" stroke-width="5.123" stroke="black" fill="none" stroke-linecap="round"></path><path d="M 201.031,119.551 C 200.232,122.681 200.380,122.359 198.336,124.852" stroke-width="5.153" stroke="black" fill="none" stroke-linecap="round"></path><path d="M 198.336,124.852 C 193.335,126.867 196.449,127.013 193.465,128.215" stroke-width="5.164" stroke="black" fill="none" stroke-linecap="round"></path><path d="M 193.465,128.215 C 196.106,129.358 193.591,129.517 198.848,130.152" stroke-width="5.407" stroke="black" fill="none" stroke-linecap="round"></path><path d="M 198.848,130.152 C 201.301,130.671 201.251,130.849 203.754,131.195" stroke-width="5.284" stroke="black" fill="none" stroke-linecap="round"></path><path d="M 203.754,131.195 C 206.210,132.066 206.237,131.726 208.719,132.262" stroke-width="5.339" stroke="black" fill="none" stroke-linecap="round"></path><path d="M 208.719,132.262 C 212.541,133.369 211.189,132.455 213.711,131.973" stroke-width="5.473" stroke="black" fill="none" stroke-linecap="round"></path><path d="M 213.711,131.973 C 213.382,129.099 215.037,130.390 213.711,126.305" stroke-width="5.395" stroke="black" fill="none" stroke-linecap="round"></path><path d="M 213.711,126.305 C 214.528,123.654 214.031,123.586 215.008,120.945" stroke-width="5.161" stroke="black" fill="none" stroke-linecap="round"></path><path d="M 215.008,120.945 C 215.672,118.409 215.448,118.455 215.551,115.906" stroke-width="5.223" stroke="black" fill="none" stroke-linecap="round"></path><path d="M 215.551,115.906 C 215.749,112.789 215.418,113.179 214.500,110.484" stroke-width="5.200" stroke="black" fill="none" stroke-linecap="round"></path><path d="M 214.500,110.484 C 212.526,106.877 213.359,108.379 210.770,107.086" stroke-width="5.376" stroke="black" fill="none" stroke-linecap="round"></path><path d="M 210.770,107.086 C 207.812,108.849 208.786,107.322 207.020,111.375" stroke-width="5.390" stroke="black" fill="none" stroke-linecap="round"></path><path d="M 207.020,111.375 C 206.737,114.837 206.076,114.382 207.297,118.152" stroke-width="5.093" stroke="black" fill="none" stroke-linecap="round"></path><path d="M 207.297,118.152 C 208.124,121.215 207.819,121.247 209.184,124.195" stroke-width="4.873" stroke="black" fill="none" stroke-linecap="round"></path><path d="M 209.184,124.195 C 209.441,128.288 210.278,127.276 211.605,130.273" stroke-width="4.943" stroke="black" fill="none" stroke-linecap="round"></path><path d="M 211.605,130.273 C 214.604,131.604 213.712,132.206 217.727,132.031" stroke-width="5.137" stroke="black" fill="none" stroke-linecap="round"></path><path d="M 217.727,132.031 C 221.043,132.515 220.895,132.465 224.188,131.996" stroke-width="5.027" stroke="black" fill="none" stroke-linecap="round"></path><path d="M 224.188,131.996 C 228.017,131.954 227.092,131.517 229.824,130.035" stroke-width="5.026" stroke="black" fill="none" stroke-linecap="round"></path><path d="M 229.824,130.035 C 231.791,126.984 231.580,128.171 231.313,124.430" stroke-width="5.276" stroke="black" fill="none" stroke-linecap="round"></path><path d="M 231.313,124.430 C 229.659,122.257 230.862,122.025 227.965,120.117" stroke-width="5.219" stroke="black" fill="none" stroke-linecap="round"></path><path d="M 227.965,120.117 C 226.436,117.945 226.327,118.048 224.648,116.012" stroke-width="5.216" stroke="black" fill="none" stroke-linecap="round"></path><path d="M 224.648,116.012 C 223.023,113.768 222.875,114.094 220.844,112.414" stroke-width="5.213" stroke="black" fill="none" stroke-linecap="round"></path><path d="M 220.844,112.414 C 216.222,110.100 218.631,111.039 215.863,110.555" stroke-width="5.212" stroke="black" fill="none" stroke-linecap="round"></path><path d="M 215.863,110.555 C 217.749,112.287 215.519,110.991 219.438,114.195" stroke-width="5.445" stroke="black" fill="none" stroke-linecap="round"></path><path d="M 219.438,114.195 C 221.405,116.534 221.460,116.480 223.285,118.941" stroke-width="4.953" stroke="black" fill="none" stroke-linecap="round"></path><path d="M 223.285,118.941 C 225.764,121.893 225.648,121.967 227.922,125.063" stroke-width="4.673" stroke="black" fill="none" stroke-linecap="round"></path><path d="M 227.922,125.063 C 230.004,128.119 229.991,128.102 231.738,131.359" stroke-width="4.621" stroke="black" fill="none" stroke-linecap="round"></path><path d="M 231.738,131.359 C 233.120,134.140 233.199,134.088 234.313,137.000" stroke-width="4.716" stroke="black" fill="none" stroke-linecap="round"></path><path d="M 234.313,137.000 C 235.295,139.431 235.320,139.416 236.137,141.910" stroke-width="4.812" stroke="black" fill="none" stroke-linecap="round"></path><path d="M 236.137,141.910 C 237.139,145.034 237.191,145.015 238.105,148.168" stroke-width="4.923" stroke="black" fill="none" stroke-linecap="round"></path><path d="M 238.105,148.168 C 238.744,150.865 238.918,150.801 239.695,153.445" stroke-width="5.112" stroke="black" fill="none" stroke-linecap="round"></path><path d="M 239.695,153.445 C 240.709,155.838 240.592,155.878 241.801,158.195" stroke-width="5.382" stroke="black" fill="none" stroke-linecap="round"></path><path d="M 241.801,158.195 C 242.872,160.614 242.911,160.592 244.098,162.953" stroke-width="5.267" stroke="black" fill="none" stroke-linecap="round"></path><path d="M 244.098,162.953 C 245.697,165.228 245.368,165.378 246.793,167.723" stroke-width="5.282" stroke="black" fill="none" stroke-linecap="round"></path><path d="M 229.484,107.594 C 229.050,110.778 229.484,110.709 229.484,113.824" stroke-width="5.535" stroke="black" fill="none" stroke-linecap="round"></path><path d="M 229.484,113.824 C 229.661,116.693 229.843,116.340 231.070,118.719" stroke-width="5.314" stroke="black" fill="none" stroke-linecap="round"></path><path d="M 231.070,118.719 C 232.885,121.055 232.552,120.849 235.266,122.137" stroke-width="5.137" stroke="black" fill="none" stroke-linecap="round"></path><path d="M 235.266,122.137 C 238.045,123.520 237.590,123.193 240.480,122.996" stroke-width="5.342" stroke="black" fill="none" stroke-linecap="round"></path><path d="M 240.480,122.996 C 243.320,121.513 243.426,122.362 246.027,119.820" stroke-width="5.191" stroke="black" fill="none" stroke-linecap="round"></path><path d="M 246.027,119.820 C 249.403,118.815 248.450,118.306 250.742,116.582" stroke-width="5.181" stroke="black" fill="none" stroke-linecap="round"></path><path d="M 250.742,116.582 C 251.244,113.717 252.098,114.321 251.418,110.832" stroke-width="5.305" stroke="black" fill="none" stroke-linecap="round"></path><path d="M 251.418,110.832 C 251.136,105.358 251.582,108.105 251.418,105.359" stroke-width="5.373" stroke="black" fill="none" stroke-linecap="round"></path><path d="M 251.418,105.359 C 251.744,108.174 251.706,105.360 252.559,110.836" stroke-width="5.479" stroke="black" fill="none" stroke-linecap="round"></path><path d="M 252.559,110.836 C 252.962,113.689 253.304,113.271 254.539,115.555" stroke-width="5.217" stroke="black" fill="none" stroke-linecap="round"></path><path d="M 254.539,115.555 C 256.528,117.665 256.143,117.453 258.922,118.363" stroke-width="5.312" stroke="black" fill="none" stroke-linecap="round"></path><path d="M 258.922,118.363 C 261.815,119.261 261.249,119.042 263.980,118.309" stroke-width="5.308" stroke="black" fill="none" stroke-linecap="round"></path><path d="M 263.980,118.309 C 266.894,116.602 266.658,117.131 268.609,114.102" stroke-width="5.298" stroke="black" fill="none" stroke-linecap="round"></path><path d="M 268.609,114.102 C 269.699,111.556 270.118,111.903 270.430,108.910" stroke-width="5.223" stroke="black" fill="none" stroke-linecap="round"></path><path d="M 270.430,108.910 C 271.118,106.079 271.203,106.112 271.617,103.215" stroke-width="5.194" stroke="black" fill="none" stroke-linecap="round"></path><path d="M 271.617,103.215 C 273.529,99.424 272.068,100.628 272.328,98.008" stroke-width="5.356" stroke="black" fill="none" stroke-linecap="round"></path><path d="M 272.328,98.008 C 268.885,96.286 270.998,96.438 266.555,97.242" stroke-width="5.300" stroke="black" fill="none" stroke-linecap="round"></path><path d="M 266.555,97.242 C 263.989,99.242 264.260,98.183 263.078,101.801" stroke-width="5.381" stroke="black" fill="none" stroke-linecap="round"></path><path d="M 263.078,101.801 C 262.212,104.703 262.250,104.127 263.078,107.012" stroke-width="5.267" stroke="black" fill="none" stroke-linecap="round"></path><path d="M 263.078,107.012 C 264.428,110.389 264.104,109.746 266.863,111.887" stroke-width="5.185" stroke="black" fill="none" stroke-linecap="round"></path><path d="M 266.863,111.887 C 269.620,112.928 268.994,113.197 272.211,112.629" stroke-width="5.252" stroke="black" fill="none" stroke-linecap="round"></path><path d="M 272.211,112.629 C 274.942,112.216 274.657,112.346 276.938,110.723" stroke-width="5.235" stroke="black" fill="none" stroke-linecap="round"></path><path d="M 276.938,110.723 C 279.654,107.953 279.975,108.450 282.277,105.098" stroke-width="4.974" stroke="black" fill="none" stroke-linecap="round"></path><path d="M 282.277,105.098 C 284.309,103.366 284.023,103.197 285.676,101.211" stroke-width="4.896" stroke="black" fill="none" stroke-linecap="round"></path><path d="M 285.676,101.211 C 287.285,98.918 287.069,99.014 287.797,96.395" stroke-width="5.165" stroke="black" fill="none" stroke-linecap="round"></path><path d="M 287.797,96.395 C 287.831,93.578 288.345,93.694 287.797,90.762" stroke-width="5.239" stroke="black" fill="none" stroke-linecap="round"></path><path d="M 287.797,90.762 C 286.632,85.592 287.765,88.175 287.664,85.590" stroke-width="5.315" stroke="black" fill="none" stroke-linecap="round"></path><path d="M 287.664,85.590 C 290.359,88.037 289.110,85.586 292.754,90.750" stroke-width="5.460" stroke="black" fill="none" stroke-linecap="round"></path><path d="M 292.754,90.750 C 295.372,93.386 295.156,93.471 297.258,96.457" stroke-width="4.950" stroke="black" fill="none" stroke-linecap="round"></path><path d="M 297.258,96.457 C 298.893,99.047 298.788,98.948 299.586,101.875" stroke-width="4.824" stroke="black" fill="none" stroke-linecap="round"></path><path d="M 299.586,101.875 C 301.085,105.493 300.352,105.006 300.176,108.375" stroke-width="4.929" stroke="black" fill="none" stroke-linecap="round"></path><path d="M 300.176,108.375 C 298.293,111.298 299.227,111.384 295.871,113.656" stroke-width="4.756" stroke="black" fill="none" stroke-linecap="round"></path><path d="M 295.871,113.656 C 293.653,115.519 293.824,115.650 291.238,117.078" stroke-width="4.354" stroke="black" fill="none" stroke-linecap="round"></path><path d="M 291.238,117.078 C 288.574,118.835 288.579,118.795 285.723,120.207" stroke-width="4.171" stroke="black" fill="none" stroke-linecap="round"></path><path d="M 285.723,120.207 C 282.594,121.650 282.634,121.693 279.359,122.793" stroke-width="4.054" stroke="black" fill="none" stroke-linecap="round"></path><path d="M 279.359,122.793 C 275.804,124.058 275.815,124.045 272.164,124.996" stroke-width="3.944" stroke="black" fill="none" stroke-linecap="round"></path><path d="M 272.164,124.996 C 268.244,125.941 268.267,126.000 264.285,126.676" stroke-width="3.854" stroke="black" fill="none" stroke-linecap="round"></path><path d="M 264.285,126.676 C 260.183,127.383 260.195,127.435 256.066,127.984" stroke-width="3.799" stroke="black" fill="none" stroke-linecap="round"></path><path d="M 256.066,127.984 C 251.594,128.669 251.592,128.638 247.102,129.188" stroke-width="3.760" stroke="black" fill="none" stroke-linecap="round"></path><path d="M 247.102,129.188 C 241.893,129.725 241.900,129.788 236.680,130.223" stroke-width="3.615" stroke="black" fill="none" stroke-linecap="round"></path><path d="M 236.680,130.223 C 230.786,130.733 230.791,130.785 224.898,131.309" stroke-width="3.457" stroke="black" fill="none" stroke-linecap="round"></path><path d="M 224.898,131.309 C 218.669,131.927 218.669,131.918 212.445,132.594" stroke-width="3.302" stroke="black" fill="none" stroke-linecap="round"></path><path d="M 212.445,132.594 C 206.261,133.197 206.269,133.255 200.098,133.965" stroke-width="3.265" stroke="black" fill="none" stroke-linecap="round"></path><path d="M 200.098,133.965 C 194.189,134.655 194.199,134.699 188.320,135.598" stroke-width="3.238" stroke="black" fill="none" stroke-linecap="round"></path><path d="M 188.320,135.598 C 182.723,136.605 182.706,136.499 177.133,137.652" stroke-width="3.329" stroke="black" fill="none" stroke-linecap="round"></path><path d="M 177.133,137.652 C 171.575,138.740 171.567,138.695 166.008,139.777" stroke-width="3.362" stroke="black" fill="none" stroke-linecap="round"></path><path d="M 166.008,139.777 C 160.020,140.916 160.016,140.894 154.016,141.961" stroke-width="3.242" stroke="black" fill="none" stroke-linecap="round"></path><path d="M 154.016,141.961 C 147.120,143.080 147.133,143.158 140.234,144.262" stroke-width="3.189" stroke="black" fill="none" stroke-linecap="round"></path><path d="M 140.234,144.262 C 130.998,145.721 131.022,145.842 121.820,147.484" stroke-width="2.814" stroke="black" fill="none" stroke-linecap="round"></path><path d="M 121.820,147.484 C 111.352,149.580 111.338,149.498 100.914,151.816" stroke-width="2.582" stroke="black" fill="none" stroke-linecap="round"></path><path d="M 100.914,151.816 C 92.470,153.773 92.440,153.632 83.996,155.590" stroke-width="2.721" stroke="black" fill="none" stroke-linecap="round"></path><path d="M 83.996,155.590 C 76.872,157.145 76.868,157.118 69.711,158.508" stroke-width="2.929" stroke="black" fill="none" stroke-linecap="round"></path><path d="M 69.711,158.508 C 64.220,159.570 64.221,159.553 58.695,160.406" stroke-width="3.239" stroke="black" fill="none" stroke-linecap="round"></path><path d="M 58.695,160.406 C 55.015,160.921 55.024,160.962 51.320,161.293" stroke-width="3.639" stroke="black" fill="none" stroke-linecap="round"></path><path d="M 51.320,161.293 C 48.526,161.614 48.528,161.574 45.723,161.711" stroke-width="4.033" stroke="black" fill="none" stroke-linecap="round"></path><path d="M 45.723,161.711 C 42.406,162.163 42.477,161.823 39.223,161.711" stroke-width="4.477" stroke="black" fill="none" stroke-linecap="round"></path><path d="M 39.223,161.711 C 33.009,160.802 36.265,161.291 33.441,159.969" stroke-width="4.843" stroke="black" fill="none" stroke-linecap="round"></path><path d="M 33.441,159.969 C 37.306,158.711 34.022,158.851 41.250,157.809" stroke-width="5.242" stroke="black" fill="none" stroke-linecap="round"></path><path d="M 41.250,157.809 C 44.465,157.307 44.417,157.084 47.664,156.715" stroke-width="4.361" stroke="black" fill="none" stroke-linecap="round"></path><path d="M 47.664,156.715 C 51.232,156.047 51.233,156.055 54.785,155.305" stroke-width="4.059" stroke="black" fill="none" stroke-linecap="round"></path><path d="M 54.785,155.305 C 58.686,154.561 58.668,154.494 62.535,153.609" stroke-width="3.900" stroke="black" fill="none" stroke-linecap="round"></path><path d="M 62.535,153.609 C 66.639,152.659 66.613,152.602 70.641,151.387" stroke-width="3.749" stroke="black" fill="none" stroke-linecap="round"></path><path d="M 70.641,151.387 C 75.006,150.019 74.986,150.005 79.230,148.301" stroke-width="3.686" stroke="black" fill="none" stroke-linecap="round"></path><path d="M 79.230,148.301 C 83.996,146.164 84.065,146.335 88.758,144.020" stroke-width="3.542" stroke="black" fill="none" stroke-linecap="round"></path><path d="M 88.758,144.020 C 94.250,141.505 94.265,141.539 99.770,139.051" stroke-width="3.562" stroke="black" fill="none" stroke-linecap="round"></path><path d="M 99.770,139.051 C 105.858,136.376 105.846,136.349 111.949,133.707" stroke-width="3.268" stroke="black" fill="none" stroke-linecap="round"></path><path d="M 111.949,133.707 C 118.013,130.940 118.052,131.033 124.156,128.363" stroke-width="3.126" stroke="black" fill="none" stroke-linecap="round"></path><path d="M 124.156,128.363 C 129.857,125.886 129.880,125.962 135.684,123.750" stroke-width="3.212" stroke="black" fill="none" stroke-linecap="round"></path><path d="M 135.684,123.750 C 141.316,121.787 141.279,121.698 147.000,119.988" stroke-width="3.277" stroke="black" fill="none" stroke-linecap="round"></path><path d="M 147.000,119.988 C 152.249,118.407 152.226,118.334 157.504,116.844" stroke-width="3.376" stroke="black" fill="none" stroke-linecap="round"></path><path d="M 157.504,116.844 C 162.343,115.367 162.353,115.401 167.207,113.977" stroke-width="3.425" stroke="black" fill="none" stroke-linecap="round"></path><path d="M 167.207,113.977 C 171.941,112.741 171.909,112.632 176.637,111.375" stroke-width="3.525" stroke="black" fill="none" stroke-linecap="round"></path><path d="M 176.637,111.375 C 181.418,110.043 181.398,109.989 186.121,108.473" stroke-width="3.544" stroke="black" fill="none" stroke-linecap="round"></path><path d="M 186.121,108.473 C 191.498,106.742 191.469,106.687 196.738,104.664" stroke-width="3.369" stroke="black" fill="none" stroke-linecap="round"></path><path d="M 196.738,104.664 C 202.956,102.113 202.980,102.189 209.086,99.367" stroke-width="3.207" stroke="black" fill="none" stroke-linecap="round"></path><path d="M 209.086,99.367 C 216.002,96.142 216.049,96.248 222.926,92.934" stroke-width="3.033" stroke="black" fill="none" stroke-linecap="round"></path><path d="M 222.926,92.934 C 230.579,89.394 230.576,89.388 238.234,85.859" stroke-width="2.883" stroke="black" fill="none" stroke-linecap="round"></path><path d="M 238.234,85.859 C 246.015,82.330 245.991,82.278 253.750,78.703" stroke-width="2.767" stroke="black" fill="none" stroke-linecap="round"></path><path d="M 253.750,78.703 C 260.564,75.486 260.572,75.504 267.348,72.207" stroke-width="2.914" stroke="black" fill="none" stroke-linecap="round"></path><path d="M 267.348,72.207 C 273.474,69.322 273.443,69.261 279.508,66.254" stroke-width="3.006" stroke="black" fill="none" stroke-linecap="round"></path><path d="M 279.508,66.254 C 285.102,63.546 285.037,63.443 290.473,60.449" stroke-width="3.174" stroke="black" fill="none" stroke-linecap="round"></path><path d="M 290.473,60.449 C 295.838,57.208 295.897,57.321 301.098,53.805" stroke-width="3.219" stroke="black" fill="none" stroke-linecap="round"></path><path d="M 301.098,53.805 C 306.310,50.264 306.387,50.382 311.570,46.797" stroke-width="3.168" stroke="black" fill="none" stroke-linecap="round"></path><path d="M 311.570,46.797 C 315.499,44.186 315.507,44.202 319.492,41.680" stroke-width="3.470" stroke="black" fill="none" stroke-linecap="round"></path><path d="M 319.492,41.680 C 322.311,39.886 322.319,39.905 325.211,38.234" stroke-width="3.805" stroke="black" fill="none" stroke-linecap="round"></path></svg>