<svg xmlns="http://www.w3.org/2000/svg" viewBox="0 0 30000 30000" fill="currentColor">
  <path d="M0 15000v-15000h15000 15000v15000 15000H15000 0v-15000zm7996 11977c464-82 839-278 1149-598 156-162 259-305 358-504 116-233 180-455 207-724 14-141 14-2881 0-3022-28-271-93-497-212-734-260-517-747-908-1307-1050-242-61-153-58-1746-62-1484-4-1598-2-1783 33-865 164-1526 859-1644 1730-19 145-19 3043 0 3188 127 935 873 1656 1817 1755 44 5 753 8 1575 7 1329-2 1505-4 1586-19zm4234 7c166-38 308-176 352-343 15-58 17-129 18-606 0-575 1-584 51-690 31-68 149-184 219-217 136-63 284-63 420 0 73 34 187 149 222 222 30 64 48 143 48 206 0 164 93 327 237 414 117 71 72 69 1200 69 704 1 1028 4 1065 12 91 19 158 57 234 133 98 99 143 204 145 339 2 229 177 430 407 469 234 39 473-118 534-351 15-58 17-128 17-594-1-590-1-617-65-724-69-114-172-193-293-225-60-15-155-17-1086-18-1091 0-1059 1-1170-51-65-30-184-149-214-214-50-106-51-115-51-690-1-477-3-548-18-606-61-233-300-390-534-351-230 39-405 240-407 469-2 135-47 240-145 339-101 100-203 144-336 144-132 0-236-45-336-144-96-96-144-204-144-324 0-222-150-419-359-474-58-15-127-17-601-17-474 0-543 2-601 17-233 61-390 300-351 535 39 229 240 404 469 406 137 2 240 46 339 145 195 196 195 476 0 672-99 98-201 143-331 144-238 3-438 174-477 408-47 279 182 548 469 551 137 2 240 46 339 145 97 98 144 206 144 332 0 213 153 412 359 466 83 21 144 22 231 2zm6731-2c233-61 390-300 351-534-35-205-195-365-399-400-311-52-597 234-545 545 39 231 242 406 472 406 30 0 85-8 121-17zm6315-5c464-82 839-278 1149-598 156-162 259-305 358-504 116-233 180-455 207-724 14-141 14-2881 0-3022-28-271-93-497-212-734-260-517-747-908-1307-1050-242-61-153-58-1746-62-1484-4-1598-2-1783 33-865 164-1526 859-1644 1730-19 145-19 3043 0 3188 127 935 873 1656 1817 1755 44 5 753 8 1575 7 1329-2 1505-4 1586-19zm-9195-2875c233-61 390-300 351-534-35-205-195-365-399-400-311-52-597 234-545 545 39 231 242 406 472 406 30 0 85-8 121-17zm2880 0c121-32 224-111 293-225 63-107 66-134 66-717 0-583-3-610-66-717-91-151-245-241-419-243-129-1-233-47-331-144-96-96-144-204-144-324 0-271-215-488-485-492-129-1-233-47-331-144-97-98-143-202-144-331-3-238-174-438-407-477-280-47-549 182-552 469-2 135-47 240-145 339-99 98-201 143-331 144-238 3-438 174-477 408-39 234 118 473 351 534 58 15 129 17 598 17 563 1 595 3 693 49 73 34 187 149 222 222 46 99 48 129 48 686 0 587 3 614 66 721 69 114 172 193 293 225 58 15 127 17 601 17 474 0 543-2 601-17zm-5771-958c166-38 308-176 352-343 15-60 17-154 17-1081 0-927-2-1021-17-1081-61-233-300-390-534-351-188 32-343 171-390 351-15 60-17 155-17 1074-1 1121-3 1090 65 1204 69 114 172 193 293 225 83 21 144 22 231 2zm1931-2c233-61 390-300 351-534-35-205-195-365-399-400-311-52-597 234-545 545 39 231 242 406 472 406 30 0 85-8 121-17zm-3851-958c166-38 308-176 352-343 15-58 17-127 17-601 0-474-2-543-17-601-47-180-202-319-389-351-235-39-474 118-535 351-15 58-17 128-17 594-1 590 1 617 65 724 69 114 172 193 293 225 83 21 144 22 231 2zm3840-960c166-38 308-176 352-343 15-58 17-129 18-606 0-575 1-584 51-690 31-68 149-184 219-217 30-14 79-30 108-37 38-8 347-11 1058-11 1117 0 1087 2 1201-66 151-91 241-245 243-419 1-129 47-233 144-331 124-123 272-168 438-133 91 19 158 57 234 133 98 99 143 204 145 339 2 229 177 430 407 469 234 39 473-118 534-351 15-58 17-129 18-606 0-575 1-584 51-690 31-68 149-184 219-217 66-30 142-48 213-49 287-3 516-272 469-551-39-234-239-405-477-408-129-1-233-47-331-144-96-96-144-204-144-324 0-222-150-419-359-474-58-15-127-17-601-17-474 0-543 2-601 17-233 61-390 300-351 535 39 229 240 404 469 406 137 2 240 46 339 145 195 196 195 476 0 672-101 100-203 144-336 144-132 0-236-45-336-144-97-98-143-202-144-331-2-174-92-328-243-419-107-64-134-66-724-65-466 0-536 2-594 17-121 32-224 111-293 225-63 107-66 134-66 721 0 557-2 587-48 686-32 68-149 188-215 219-103 50-116 51-692 51-477 1-548 3-606 18-121 32-224 111-293 225-68 114-66 84-66 1197 0 1113-2 1083 66 1197 69 114 172 193 293 225 83 21 144 22 231 2zm3840 0c166-38 308-176 352-343 15-58 17-127 17-601 0-474-2-543-17-601-61-233-300-390-534-351-188 32-343 171-390 351-15 58-17 128-17 594-1 590 1 617 65 724 69 114 172 193 293 225 83 21 144 22 231 2zm-11520-1920c211-48 367-246 370-469 1-129 47-233 144-331 99-98 204-143 339-145 261-2 477-224 477-491 0-120 48-228 144-324 99-98 204-143 339-145 229-2 430-177 469-406 39-235-118-474-351-535-58-15-127-17-601-17-597 0-612 2-723 69-144 87-237 250-237 414 0 126-47 234-144 332-97 97-203 144-324 144-267 0-489 216-491 477-2 135-47 240-145 339-74 73-129 106-219 130-75 20-1118 20-1192 0-91-24-148-58-221-130-99-100-144-204-144-336 0-132 45-236 144-336 76-75 143-113 234-133 36-7 224-11 578-11 587 0 614-3 721-66 151-91 241-245 243-419 1-129 47-233 144-331 99-98 204-143 339-145 229-2 430-177 469-406 39-235-118-474-351-535-58-15-127-17-601-17-597 0-612 2-723 69-144 87-237 250-237 414 0 126-47 234-144 332-74 73-129 106-219 130-75 20-1118 20-1192 0-91-24-148-58-221-130-97-98-143-202-144-331-3-238-174-438-408-477-234-39-473 118-534 351-16 61-17 181-17 1554-1 1652-4 1567 65 1684 69 114 172 193 293 225 61 16 207 17 2034 17 1748 1 1976-1 2037-15zm5771-2c233-61 390-300 351-534-39-234-239-405-477-408-129-1-233-47-331-144-72-73-106-130-130-221-20-73-20-1117 0-1190 24-91 58-148 130-221 124-123 272-168 438-133 91 19 158 57 234 133 98 99 143 204 145 339 2 215 162 414 369 461 58 14 153 16 597 15 466 0 536-2 594-17 233-61 390-300 351-534-39-234-239-405-477-408-69 0-139-17-210-51-65-30-184-149-214-214-50-106-51-115-51-690-1-477-3-548-18-606-61-233-300-390-534-351-230 39-405 240-407 469-2 135-47 240-145 339-101 100-203 144-336 144-132 0-236-45-336-144-99-100-144-204-144-336 0-132 45-236 144-336 99-98 204-143 339-145 215-2 414-162 461-369 14-58 16-153 15-597 0-466-2-536-17-594-55-209-252-359-474-359-120 0-228-48-324-144-97-98-143-202-144-331-4-270-221-485-492-485-62 0-133-18-203-51-65-30-184-149-214-214-50-107-51-114-51-695 0-581 1-588 51-695 31-68 149-184 219-217 64-30 143-48 206-48 262 0 480-219 484-485 1-129 47-233 144-331 124-123 272-168 438-133 91 19 158 57 234 133 98 99 143 204 145 339 2 215 162 414 369 461 60 14 200 16 1074 16 701 0 1021 3 1058 11 91 19 158 57 234 133 98 99 143 204 145 339 2 229 177 430 407 469 234 39 473-118 534-351 15-60 17-155 17-1074 1-1121 3-1090-65-1204-91-151-245-241-419-243-129-1-233-47-331-144-96-96-144-204-144-324 0-271-215-488-485-492-69 0-139-17-210-51-65-30-184-149-214-214-52-111-51-79-51-1170-1-931-3-1026-18-1086-47-180-202-319-390-351-234-39-473 118-534 351-15 60-17 155-17 1078-1 715-4 1028-12 1065-20 91-58 158-133 234-39 39-92 81-119 93-103 50-117 51-685 51-446 0-544 3-602 16-207 47-367 246-369 461-2 135-47 240-145 339-97 97-203 144-324 144-267 0-489 216-491 477-2 135-47 240-145 339-97 97-203 144-324 144-222 0-419 150-474 359-15 58-17 129-17 598-1 564-3 594-49 693-32 68-149 188-215 219-110 53-40 51-1652 51-1384 1-1505 2-1566 18-233 61-390 300-351 535 39 229 240 404 469 406 137 2 240 46 339 145 195 196 195 476 0 672-74 73-129 106-219 130-75 20-1118 20-1192 0-91-24-148-58-221-130-97-98-143-202-144-331-3-238-174-438-408-477-234-39-473 118-534 351-15 58-17 127-17 601 0 597 2 612 69 723 87 144 250 237 414 237 127 0 234 47 332 144 98 99 143 204 145 339 2 215 162 414 369 461 58 14 153 16 597 15 466 0 536-2 594-17 209-55 359-252 359-474 0-120 48-228 144-324 76-75 143-113 234-133 36-7 228-11 585-12 469 0 540-2 598-17 233-61 390-300 351-534-39-234-239-405-477-408-129-1-233-47-331-144-99-100-144-204-144-336 0-132 45-236 144-336 76-75 143-113 234-133 73-15 1090-15 1164 0 91 19 158 57 234 133 98 99 143 204 145 339 1 118 59 254 144 336 87 85 221 141 339 141 127 0 234 47 332 144 75 76 113 143 133 234 15 73 15 1091 0 1164-20 91-58 158-133 234-99 98-201 143-331 144-238 3-438 174-477 408-47 279 182 548 469 551 137 2 240 46 339 145 195 196 195 476 0 672-99 98-201 143-331 144-174 2-328 92-419 243-63 107-66 134-66 721 0 557-2 587-48 686-32 68-149 188-215 219-103 50-116 51-692 51-477 1-548 3-606 18-180 47-319 202-351 390-39 234 118 473 351 534 61 16 206 17 2041 17 1835 0 1980-1 2041-17zm8629 2c211-48 367-246 370-469 1-129 47-233 144-331 99-98 204-143 339-145 215-2 414-162 461-369 14-58 16-153 15-597 0-466-2-536-17-594-61-233-300-390-534-351-230 39-405 240-407 469-2 135-47 240-145 339-99 98-201 143-331 144-174 2-328 92-419 243-63 107-66 134-66 717 0 583 3 610 66 717 69 114 172 193 293 225 83 21 144 22 231 2zm1931-2c233-61 390-300 351-534-44-261-292-442-544-400-261 44-442 292-400 545 39 231 242 406 472 406 30 0 85-8 121-17zm1920 0c233-61 390-300 351-534-44-261-292-442-544-400-261 44-442 292-400 545 39 231 242 406 472 406 30 0 85-8 121-17zm960-960c233-61 390-300 351-534-44-261-292-442-544-400-261 44-442 292-400 545 39 231 242 406 472 406 30 0 85-8 121-17zm-1920-960c233-61 390-300 351-534-44-261-292-442-544-400-261 44-442 292-400 545 39 231 242 406 472 406 30 0 85-8 121-17zm-14400-960c233-61 390-300 351-534-35-205-195-365-399-400-311-52-597 234-545 545 39 231 242 406 472 406 30 0 85-8 121-17zm5749 2c211-48 367-246 370-469 1-129 47-233 144-331 76-75 143-113 234-133 36-7 228-11 585-12 469 0 540-2 598-17 180-47 319-202 351-389 39-235-118-474-351-535-60-15-154-17-1081-17-927 0-1021 2-1081 17-121 32-224 111-293 225-63 107-66 134-66 717 0 583 3 610 66 717 69 114 172 193 293 225 83 21 144 22 231 2zm-10549-962c233-61 390-300 351-534-35-205-195-365-399-400-311-52-597 234-545 545 39 231 242 406 472 406 30 0 85-8 121-17zm3840 0c233-61 390-300 351-534-35-205-195-365-399-400-311-52-597 234-545 545 39 231 242 406 472 406 30 0 85-8 121-17zm14400 0c233-61 390-300 351-534-39-234-239-405-477-408-69 0-139-17-210-51-65-30-184-149-214-214-50-106-51-115-51-690-1-477-3-548-18-606-61-233-300-390-534-351-230 39-405 240-407 469-2 135-47 240-145 339-101 100-203 144-336 144-132 0-236-45-336-144-96-96-144-204-144-324 0-271-215-488-485-492-129-1-233-47-331-144-99-100-144-204-144-336 0-132 45-236 144-336 76-75 143-113 234-133 38-8 473-11 1545-12 1377 0 1497-1 1558-17 233-61 390-300 351-534-39-234-239-405-477-408-129-1-233-47-331-144-72-73-106-130-130-221-20-73-20-1117 0-1190 24-91 58-148 130-221 98-97 206-144 332-144 164 0 327-93 414-237 67-111 69-126 69-723 0-474-2-543-17-601-55-209-252-359-474-359-62 0-133-18-203-51-65-30-184-149-214-214-50-107-51-114-51-695 0-581 1-588 51-695 31-68 149-184 219-217 66-30 142-48 213-49 229-2 430-177 469-406 39-235-118-474-351-535-62-16-233-17-2521-17-2288 0-2459 1-2521 17-233 61-390 300-351 534 32 188 171 343 351 390 61 16 181 17 1558 17 1057 1 1507 4 1545 12 91 19 158 57 234 133 75 76 113 143 133 234 7 36 11 225 11 582 0 357-4 546-11 582-20 91-58 158-133 234-101 100-203 144-336 144-132 0-236-45-336-144-97-98-143-202-144-331-3-238-174-438-407-477-280-47-549 182-552 469-2 135-47 240-145 339-101 100-203 144-336 144-132 0-236-45-336-144-97-98-143-202-144-331-2-174-92-328-243-419-107-64-134-66-724-65-466 0-536 2-594 17-233 61-390 300-351 535 39 229 240 404 469 406 137 2 240 46 339 145 75 76 113 143 133 234 16 75 16 3009 0 3084-20 91-58 158-133 234-99 98-201 143-331 144-238 3-438 174-477 408-39 234 118 473 351 534 58 15 129 17 598 17 351 1 550 5 585 12 91 19 158 57 234 133 75 76 113 143 133 234 15 73 15 1091 0 1164-20 91-58 158-133 234-99 98-201 143-331 144-238 3-438 174-477 408-39 234 118 473 351 534 58 15 129 17 598 17 351 1 550 5 585 12 91 19 158 57 234 133 97 98 144 206 144 332 0 164 93 327 237 414 120 73 16 69 1683 69 1381 0 1500-1 1561-17zm2880 0c233-61 390-300 351-534-32-188-171-343-351-390-58-15-127-17-601-17-474 0-543 2-601 17-233 61-390 300-351 535 32 187 171 342 351 389 58 15 127 17 601 17 474 0 543-2 601-17zm-23051-958c166-38 308-176 352-343 16-61 17-180 17-1561 0-1381-1-1500-17-1561-47-180-202-319-390-351-234-39-473 118-534 351-16 61-17 181-17 1554-1 1652-4 1567 65 1684 69 114 172 193 293 225 83 21 144 22 231 2zm11531-2c233-61 390-300 351-534-35-205-195-365-399-400-311-52-597 234-545 545 39 231 242 406 472 406 30 0 85-8 121-17zm1920-960c233-61 390-300 351-534-35-205-195-365-399-400-311-52-597 234-545 545 39 231 242 406 472 406 30 0 85-8 121-17zm9589 2c166-38 308-176 352-343 16-61 17-207 17-2034 1-2184 5-2046-65-2164-69-114-172-193-293-225-60-15-154-17-1081-17-927 0-1021 2-1081 17-180 47-319 202-351 390-39 234 118 473 351 534 58 15 129 17 598 17 563 1 595 3 693 49 73 34 187 149 222 222 46 99 48 129 48 690 0 357-4 546-11 582-20 91-58 158-133 234-99 98-201 143-331 144-266 4-485 222-485 484 0 126-47 234-144 332-99 98-201 143-331 144-238 3-438 174-477 408-39 234 118 473 351 534 60 15 155 17 1074 17 878 1 1017-1 1077-15zm-11520-960c166-38 308-176 352-343 15-58 17-127 17-601 0-474-2-543-17-601-47-180-202-319-389-351-235-39-474 118-535 351-15 58-17 128-17 594-1 590 1 617 65 724 69 114 172 193 293 225 83 21 144 22 231 2zm-7114-2887c464-82 839-278 1149-598 156-162 259-305 358-504 116-233 180-455 207-724 14-141 14-2881 0-3022-28-271-93-497-212-734-260-517-747-908-1307-1050-242-61-153-58-1746-62-1484-4-1598-2-1783 33-865 164-1526 859-1644 1730-19 145-19 3043 0 3188 127 935 873 1656 1817 1755 44 5 753 8 1575 7 1329-2 1505-4 1586-19zm3274-1913c211-48 367-246 370-469 1-129 47-233 144-331 99-98 204-143 339-145 215-2 414-162 461-369 13-58 16-156 16-602 0-568 1-577 51-683 31-68 149-184 219-217 66-30 142-48 213-49 215-2 414-162 461-369 14-58 16-153 15-597 0-466-2-536-17-594-61-233-300-390-534-351-230 39-405 240-407 469-2 135-47 240-145 339-101 100-203 144-336 144-132 0-236-45-336-144-97-98-143-202-144-331-3-238-174-438-408-477-234-39-473 118-534 351-16 61-17 207-17 2034-1 2184-5 2046 65 2164 69 114 172 193 293 225 83 21 144 22 231 2zm15371-962c121-32 224-111 293-225 64-107 66-134 65-724 0-466-2-536-17-594-61-233-300-390-534-351-230 39-405 240-407 469-2 135-47 240-145 339-99 98-201 143-331 144-238 3-438 174-477 408-39 234 118 473 351 534 58 15 127 17 601 17 474 0 543-2 601-17zm-9600-960c233-61 390-300 351-534-35-205-195-365-399-400-311-52-597 234-545 545 39 231 242 406 472 406 30 0 85-8 121-17zm7680 0c233-61 390-300 351-534-35-205-195-365-399-400-311-52-597 234-545 545 39 231 242 406 472 406 30 0 85-8 121-17zm949-958c211-48 367-246 370-469 1-129 47-233 144-331 99-98 204-143 339-145 229-2 430-177 469-406 39-235-118-474-351-535-60-15-154-17-1081-17-927 0-1021 2-1081 17-233 61-390 300-351 535 39 229 240 404 469 406 137 2 240 46 339 145 97 98 144 206 144 332 0 213 153 412 359 466 83 21 144 22 231 2zm-9589-962c233-61 390-300 351-534-35-205-195-365-399-400-311-52-597 234-545 545 39 231 242 406 472 406 30 0 85-8 121-17zm1920 0c233-61 390-300 351-534-35-205-195-365-399-400-311-52-597 234-545 545 39 231 242 406 472 406 30 0 85-8 121-17z"/>
  <path d="M5250 26033c-157-17-354-78-508-158-389-202-655-554-754-996l-23-104v-1135-1135l23-104c65-291 198-535 398-735 202-202 444-333 735-398l104-23h1135 1135l104 23c582 131 1002 551 1133 1133l23 104v1135 1135l-23 104c-65 290-197 534-398 735-117 117-239 204-389 277-136 65-178 80-325 117l-105 26-1115 2c-613 0-1131-1-1150-3zm1895-981c162-45 300-127 411-243 106-112 173-231 216-384 23-80 23-83 23-785 0-702 0-705-23-785-88-313-314-539-627-627-80-23-83-23-785-23-702 0-705 0-785 23-162 46-300 127-411 243-106 112-173 231-216 384-23 80-23 83-23 785 0 702 0 705 23 785 82 292 296 520 570 610 129 42 167 44 872 42 665-3 676-3 755-25z"/>
  <path d="M22530 26033c-157-17-354-78-508-158-389-202-655-554-754-996l-23-104v-1135-1135l23-104c65-291 198-535 398-735 202-202 444-333 735-398l104-23h1135 1135l104 23c582 131 1002 551 1133 1133l23 104v1135 1135l-23 104c-65 290-197 534-398 735-117 117-239 204-389 277-136 65-178 80-325 117l-105 26-1115 2c-613 0-1131-1-1150-3zm1895-981c162-45 300-127 411-243 106-112 173-231 216-384 23-80 23-83 23-785 0-702 0-705-23-785-88-313-314-539-627-627-80-23-83-23-785-23-702 0-705 0-785 23-162 46-300 127-411 243-106 112-173 231-216 384-23 80-23 83-23 785 0 702 0 705 23 785 82 292 296 520 570 610 129 42 167 44 872 42 665-3 676-3 755-25z"/>
  <path d="M14880 8746c-87-25-145-60-216-130-99-100-144-204-144-336 0-132 45-236 144-336 124-123 272-168 438-133 91 19 158 57 234 133 75 76 113 143 133 234 22 105 9 212-37 312-32 68-149 188-215 219-104 50-238 64-337 37z"/>
  <path d="M19680 10666c-87-25-145-60-216-130-72-73-106-130-130-221-11-40-14-247-14-1075 0-828 3-1035 14-1075 24-91 58-148 130-221 76-75 143-113 234-133 74-16 2049-16 2124 0 91 19 158 57 234 133 75 76 113 143 133 234 16 75 16 2049 0 2124-20 91-58 158-133 234-74 73-129 106-219 130-73 19-2087 19-2157 0zm1201-964c233-61 390-300 351-534-35-205-195-365-399-400-311-52-597 234-545 545 39 231 242 406 472 406 30 0 85-8 121-17z"/>
  <path d="M5250 8753c-157-17-354-78-508-158-389-202-655-554-754-996l-23-104v-1135-1135l23-104c65-291 198-535 398-735 202-202 444-333 735-398l104-23h1135 1135l104 23c582 131 1002 551 1133 1133l23 104v1135 1135l-23 104c-65 290-197 534-398 735-117 117-239 204-389 277-136 65-178 80-325 117l-105 26-1115 2c-613 0-1131-1-1150-3zm1895-981c162-45 300-127 411-243 106-112 173-231 216-384 23-80 23-83 23-785 0-702 0-705-23-785-88-313-314-539-627-627-80-23-83-23-785-23-702 0-705 0-785 23-162 46-300 127-411 243-106 112-173 231-216 384-23 80-23 83-23 785 0 702 0 705 23 785 82 292 296 520 570 610 129 42 167 44 872 42 665-3 676-3 755-25z"/>
</svg>