<svg width="500" height="500" viewBox="0 0 500 500" fill="none" xmlns="http://www.w3.org/2000/svg">
<path fill-rule="evenodd" clip-rule="evenodd" d="M222.02 7.80941C189.76 12.0799 172.104 17.1455 144.68 30.0011C95.1231 53.2301 56.9351 89.8697 30.1643 139.878C-5.23901 206.008 -3.15853 292.381 35.5995 365.587C102.324 491.61 256.698 532.696 379.573 457.133C409.195 438.917 442.053 404.711 460.765 372.606C465.844 363.896 466.02 362.634 462.899 357.409C461.025 354.275 458.469 351.723 457.218 351.738C455.967 351.756 450.233 359.293 444.476 368.49C433.07 386.711 412.223 411.818 408.524 411.787C407.249 411.779 401.515 405.253 395.781 397.284C390.047 389.318 379.698 375.209 372.782 365.935C365.866 356.658 351.812 337.671 341.551 323.741C331.288 309.811 321.047 296.493 318.793 294.143C316.537 291.795 314.692 289.081 314.692 288.112C314.692 285.67 307.121 277.49 304.86 277.49C303.843 277.49 301.836 279.939 300.402 282.93C298.419 287.068 298.482 289.161 300.667 291.663C303 294.334 302.675 296.109 298.947 301.089C294.372 307.203 265.847 351.655 255.088 369.441C251.974 374.588 248.211 378.773 246.729 378.74C245.244 378.705 238.344 369.536 231.394 358.367C224.446 347.197 212.609 329.271 205.093 318.534C194.142 302.891 191.683 297.801 192.712 292.903C193.65 288.445 192.696 285.685 189.179 282.692C184.494 278.704 184.29 278.704 181.761 282.668C171.231 299.169 95.8808 409.149 93.4829 411.523C90.9622 414.014 88.8168 412.552 80.5666 402.713C67.4256 387.043 48.2586 358.645 48.2586 354.844C48.2586 353.174 57.9267 339.299 69.7424 324.01C81.5582 308.72 110.229 270.938 133.457 240.049C176.842 182.356 194.345 160.521 179.089 183.129C171.191 194.835 170.695 196.626 170.86 212.862C171.256 252.129 193.05 286.681 231.282 308.659L245.853 317.032L257.683 311.026C273.787 302.851 300.502 276.864 308.09 261.992C319.118 240.377 320.292 235.525 320.095 212.404C319.924 192.214 319.222 188.717 312.77 175.863C305.84 162.061 279.361 134.332 273.108 134.332C269.895 134.332 271.859 137.731 284.576 154.154C289.736 160.816 296.788 171.718 300.249 178.381C305.884 189.226 306.544 192.921 306.563 213.659C306.581 235.338 306.104 237.749 299.089 251.303C290.382 268.123 274.294 285.245 258.208 294.81C247.625 301.102 246.488 301.329 240.432 298.354C231.211 293.819 212.354 278.01 207.313 270.583C203.546 265.033 203.476 264.275 206.733 264.275C208.77 264.275 210.436 263.364 210.436 262.249C210.436 258.981 239.266 215.128 241.979 214.269C243.341 213.838 252.699 225.389 262.777 239.939C272.853 254.49 282.424 266.412 284.043 266.436C285.665 266.458 288.119 264.123 289.497 261.247C291.735 256.578 289.775 252.858 271.243 226.559C259.823 210.358 249.254 194.873 247.753 192.146C246.254 189.419 244.129 187.19 243.033 187.19C241.94 187.19 231.303 202.557 219.4 221.337C207.496 240.119 196.818 255.188 195.673 254.825C194.528 254.464 191.482 249.255 188.901 243.253C182.282 227.847 182.456 197.608 189.272 179.687C194.952 164.75 195.013 164.439 191.901 166.267C186.927 169.19 190.231 163.785 206.539 142.327C215.864 130.055 229.489 111.839 236.817 101.846C244.145 91.854 250.897 83.6764 251.821 83.6764C252.745 83.6764 257.627 88.8675 262.668 95.2105C267.707 101.554 273.08 108.245 274.605 110.077C277.144 113.127 320.318 167.741 381.709 245.555C395.088 262.513 406.635 276.884 407.37 277.49C408.95 278.794 427.179 301.723 448.519 329.247C449.457 330.458 454.339 337.187 459.364 344.202C468.307 356.683 468.561 356.846 471.444 351.91C478.285 340.195 480.22 343.153 406.151 252.162C381.081 221.366 301.22 120.981 283.415 97.8843C257.421 64.1651 251.791 57.2495 250.341 57.2605C249.418 57.2693 246.889 60.2382 244.72 63.8612C242.554 67.4842 226.98 88.5372 210.114 110.65C193.247 132.76 173.408 158.779 166.025 168.47C158.639 178.161 151.769 187.08 150.755 188.292C148.262 191.272 123.078 224.407 113.574 237.212C102.701 251.86 72.9234 290.698 55.6747 312.729C47.6122 323.025 39.8509 331.449 38.4283 331.449C34.4573 331.449 25.7947 298.063 22.8176 271.279C14.8709 199.788 41.8016 129.78 95.6769 81.8682C124.364 56.3597 158.905 37.9849 196.535 28.2193C223.111 21.3235 278.74 20.8588 305.425 27.3119C395.818 49.1666 463.05 120.571 476.874 209.398C480.991 235.84 478.811 282.276 472.405 304.593L467.47 321.785L472.329 328.269C475 331.835 477.593 334.753 478.093 334.753C480.178 334.753 488.864 303.688 492.23 284.19C500.876 234.115 488.811 169.811 462.593 126.249C437.472 84.5134 401.814 52.2456 357.554 31.2014C327.718 17.0156 312.693 12.7759 274.148 7.66847C247.15 4.09173 250.181 4.08291 222.02 7.80941ZM313.277 312.297C311.933 313.141 307.272 319.926 302.918 327.377C282.577 362.173 248.615 416.243 247.099 416.243C246.17 416.243 241.615 410.05 236.977 402.478C206.467 352.672 181.306 312.854 180.317 312.81C178.966 312.751 176.061 316.936 149.951 356.544C104.77 425.081 104.182 426.064 106.661 428.905C111.172 434.076 137.437 450.88 151.357 457.497C177.537 469.945 197.186 475.23 227.395 477.957C277.753 482.499 327.071 470.11 372.694 441.458C399.752 424.467 401.379 431.704 356.11 367.655C334.332 336.839 316.335 311.434 316.115 311.196C315.897 310.96 314.618 311.456 313.277 312.297Z" stroke="#2E3A48" stroke-width="10"/>
</svg>
