<svg width="500" height="500" viewBox="0 0 500 500" fill="none" xmlns="http://www.w3.org/2000/svg">
<g clip-path="url(#clip0_7_28)">
<mask id="path-1-inside-1_7_28" fill="white">
<path fill-rule="evenodd" clip-rule="evenodd" d="M221.449 2.86675C188.531 7.22441 170.514 12.3934 142.53 25.5113C91.9624 49.2144 52.995 86.6017 25.6778 137.631C-10.448 205.11 -8.32503 293.246 31.224 367.946C99.31 496.541 256.835 538.466 382.217 461.36C412.444 442.772 445.972 407.868 465.067 375.108C470.249 366.22 470.429 364.932 467.244 359.601C465.332 356.403 462.724 353.799 461.447 353.815C460.171 353.833 454.32 361.523 448.445 370.908C436.806 389.501 415.534 415.121 411.759 415.089C410.458 415.08 404.607 408.421 398.756 400.29C392.905 392.161 382.345 377.765 375.288 368.301C368.231 358.835 353.89 339.461 343.42 325.246C332.947 311.031 322.497 297.441 320.197 295.043C317.895 292.648 316.013 289.879 316.013 288.89C316.013 286.398 308.287 278.051 305.98 278.051C304.942 278.051 302.894 280.55 301.431 283.602C299.407 287.825 299.471 289.96 301.701 292.513C304.081 295.239 303.75 297.05 299.946 302.132C295.277 308.37 266.17 353.729 255.192 371.879C252.014 377.131 248.175 381.401 246.662 381.367C245.147 381.331 238.106 371.976 231.014 360.579C223.924 349.18 211.846 330.889 204.177 319.933C193.002 303.97 190.493 298.776 191.543 293.778C192.5 289.229 191.526 286.414 187.938 283.359C183.157 279.289 182.949 279.289 180.368 283.335C169.623 300.172 92.7355 412.397 90.2886 414.82C87.7165 417.361 85.5273 415.869 77.1088 405.83C63.6996 389.84 44.1414 360.862 44.1414 356.983C44.1414 355.28 54.0068 341.121 66.0637 325.52C78.1206 309.919 107.376 271.365 131.079 239.846C175.349 180.976 193.21 158.695 177.642 181.765C169.583 193.709 169.077 195.536 169.245 212.104C169.649 252.173 191.888 287.429 230.9 309.856L245.768 318.4L257.839 312.272C274.272 303.93 301.533 277.413 309.275 262.236C320.528 240.181 321.727 235.23 321.526 211.637C321.351 191.035 320.635 187.466 314.051 174.35C306.98 160.266 279.96 131.972 273.58 131.972C270.301 131.972 272.305 135.439 285.282 152.198C290.547 158.996 297.743 170.121 301.275 176.919C307.024 187.985 307.698 191.756 307.717 212.918C307.736 235.039 307.249 237.499 300.091 251.33C291.206 268.493 274.79 285.964 258.376 295.724C247.577 302.145 246.416 302.377 240.236 299.34C230.827 294.713 211.586 278.581 206.441 271.003C202.597 265.34 202.527 264.567 205.85 264.567C207.929 264.567 209.628 263.636 209.628 262.499C209.628 259.164 239.047 214.417 241.816 213.54C243.206 213.1 252.754 224.887 263.038 239.733C273.32 254.582 283.086 266.747 284.738 266.771C286.393 266.794 288.897 264.412 290.303 261.477C292.587 256.712 290.587 252.916 271.676 226.08C260.024 209.549 249.239 193.748 247.707 190.965C246.177 188.183 244.009 185.909 242.891 185.909C241.775 185.909 230.922 201.589 218.775 220.752C206.628 239.918 195.732 255.294 194.564 254.923C193.396 254.555 190.288 249.24 187.654 243.116C180.9 227.395 181.077 196.539 188.032 178.252C193.829 163.01 193.891 162.693 190.716 164.559C185.64 167.541 189.011 162.026 205.652 140.13C215.167 127.607 229.071 109.019 236.548 98.8229C244.026 88.6266 250.915 80.2821 251.858 80.2821C252.801 80.2821 257.783 85.5791 262.927 92.0516C268.069 98.524 273.551 105.352 275.107 107.221C277.698 110.334 321.753 166.062 384.397 245.464C398.049 262.769 409.832 277.433 410.581 278.051C412.194 279.381 430.794 302.779 452.57 330.864C453.528 332.1 458.509 338.966 463.636 346.124C472.762 358.86 473.022 359.026 475.963 353.99C482.944 342.036 484.918 345.054 409.338 252.206C383.756 220.781 302.266 118.348 284.097 94.7799C257.572 60.3726 251.827 53.3158 250.348 53.3271C249.407 53.336 246.825 56.3655 244.612 60.0625C242.402 63.7594 226.51 85.242 209.3 107.806C192.089 130.367 171.845 156.918 164.311 166.806C156.774 176.694 149.765 185.796 148.729 187.032C146.185 190.073 120.488 223.885 110.79 236.951C99.6954 251.898 69.3096 291.529 51.7089 314.009C43.4818 324.516 35.5621 333.112 34.1106 333.112C30.0585 333.112 21.2191 299.044 18.1812 271.713C10.0724 198.764 37.5527 127.326 92.5274 78.437C121.8 52.4079 157.046 33.6581 195.444 23.6932C222.562 16.6567 279.327 16.1825 306.556 22.7673C398.794 45.068 467.398 117.93 481.504 208.569C485.705 235.551 483.481 282.935 476.944 305.707L471.908 323.25L476.866 329.867C479.592 333.505 482.237 336.483 482.748 336.483C484.876 336.483 493.739 304.784 497.174 284.888C505.996 233.791 493.684 168.175 466.932 123.724C441.298 81.1361 404.912 48.2098 359.749 26.7361C329.304 12.2608 313.973 7.93459 274.641 2.72293C247.092 -0.926808 250.184 -0.935808 221.449 2.86675ZM314.568 313.569C313.197 314.429 308.441 321.353 303.998 328.956C283.242 364.463 248.586 419.636 247.04 419.636C246.092 419.636 241.444 413.316 236.711 405.59C205.579 354.767 179.905 314.137 178.895 314.092C177.517 314.031 174.552 318.302 147.909 358.718C101.807 428.654 101.206 429.657 103.736 432.556C108.338 437.833 135.14 454.98 149.344 461.731C176.058 474.433 196.108 479.827 226.934 482.609C278.32 487.243 328.644 474.602 375.198 445.366C402.808 428.027 404.468 435.412 358.276 370.056C336.053 338.611 317.689 312.688 317.464 312.445C317.242 312.204 315.937 312.71 314.568 313.569Z"/>
</mask>
<path fill-rule="evenodd" clip-rule="evenodd" d="M221.449 2.86675C188.531 7.22441 170.514 12.3934 142.53 25.5113C91.9624 49.2144 52.995 86.6017 25.6778 137.631C-10.448 205.11 -8.32503 293.246 31.224 367.946C99.31 496.541 256.835 538.466 382.217 461.36C412.444 442.772 445.972 407.868 465.067 375.108C470.249 366.22 470.429 364.932 467.244 359.601C465.332 356.403 462.724 353.799 461.447 353.815C460.171 353.833 454.32 361.523 448.445 370.908C436.806 389.501 415.534 415.121 411.759 415.089C410.458 415.08 404.607 408.421 398.756 400.29C392.905 392.161 382.345 377.765 375.288 368.301C368.231 358.835 353.89 339.461 343.42 325.246C332.947 311.031 322.497 297.441 320.197 295.043C317.895 292.648 316.013 289.879 316.013 288.89C316.013 286.398 308.287 278.051 305.98 278.051C304.942 278.051 302.894 280.55 301.431 283.602C299.407 287.825 299.471 289.96 301.701 292.513C304.081 295.239 303.75 297.05 299.946 302.132C295.277 308.37 266.17 353.729 255.192 371.879C252.014 377.131 248.175 381.401 246.662 381.367C245.147 381.331 238.106 371.976 231.014 360.579C223.924 349.18 211.846 330.889 204.177 319.933C193.002 303.97 190.493 298.776 191.543 293.778C192.5 289.229 191.526 286.414 187.938 283.359C183.157 279.289 182.949 279.289 180.368 283.335C169.623 300.172 92.7355 412.397 90.2886 414.82C87.7165 417.361 85.5273 415.869 77.1088 405.83C63.6996 389.84 44.1414 360.862 44.1414 356.983C44.1414 355.28 54.0068 341.121 66.0637 325.52C78.1206 309.919 107.376 271.365 131.079 239.846C175.349 180.976 193.21 158.695 177.642 181.765C169.583 193.709 169.077 195.536 169.245 212.104C169.649 252.173 191.888 287.429 230.9 309.856L245.768 318.4L257.839 312.272C274.272 303.93 301.533 277.413 309.275 262.236C320.528 240.181 321.727 235.23 321.526 211.637C321.351 191.035 320.635 187.466 314.051 174.35C306.98 160.266 279.96 131.972 273.58 131.972C270.301 131.972 272.305 135.439 285.282 152.198C290.547 158.996 297.743 170.121 301.275 176.919C307.024 187.985 307.698 191.756 307.717 212.918C307.736 235.039 307.249 237.499 300.091 251.33C291.206 268.493 274.79 285.964 258.376 295.724C247.577 302.145 246.416 302.377 240.236 299.34C230.827 294.713 211.586 278.581 206.441 271.003C202.597 265.34 202.527 264.567 205.85 264.567C207.929 264.567 209.628 263.636 209.628 262.499C209.628 259.164 239.047 214.417 241.816 213.54C243.206 213.1 252.754 224.887 263.038 239.733C273.32 254.582 283.086 266.747 284.738 266.771C286.393 266.794 288.897 264.412 290.303 261.477C292.587 256.712 290.587 252.916 271.676 226.08C260.024 209.549 249.239 193.748 247.707 190.965C246.177 188.183 244.009 185.909 242.891 185.909C241.775 185.909 230.922 201.589 218.775 220.752C206.628 239.918 195.732 255.294 194.564 254.923C193.396 254.555 190.288 249.24 187.654 243.116C180.9 227.395 181.077 196.539 188.032 178.252C193.829 163.01 193.891 162.693 190.716 164.559C185.64 167.541 189.011 162.026 205.652 140.13C215.167 127.607 229.071 109.019 236.548 98.8229C244.026 88.6266 250.915 80.2821 251.858 80.2821C252.801 80.2821 257.783 85.5791 262.927 92.0516C268.069 98.524 273.551 105.352 275.107 107.221C277.698 110.334 321.753 166.062 384.397 245.464C398.049 262.769 409.832 277.433 410.581 278.051C412.194 279.381 430.794 302.779 452.57 330.864C453.528 332.1 458.509 338.966 463.636 346.124C472.762 358.86 473.022 359.026 475.963 353.99C482.944 342.036 484.918 345.054 409.338 252.206C383.756 220.781 302.266 118.348 284.097 94.7799C257.572 60.3726 251.827 53.3158 250.348 53.3271C249.407 53.336 246.825 56.3655 244.612 60.0625C242.402 63.7594 226.51 85.242 209.3 107.806C192.089 130.367 171.845 156.918 164.311 166.806C156.774 176.694 149.765 185.796 148.729 187.032C146.185 190.073 120.488 223.885 110.79 236.951C99.6954 251.898 69.3096 291.529 51.7089 314.009C43.4818 324.516 35.5621 333.112 34.1106 333.112C30.0585 333.112 21.2191 299.044 18.1812 271.713C10.0724 198.764 37.5527 127.326 92.5274 78.437C121.8 52.4079 157.046 33.6581 195.444 23.6932C222.562 16.6567 279.327 16.1825 306.556 22.7673C398.794 45.068 467.398 117.93 481.504 208.569C485.705 235.551 483.481 282.935 476.944 305.707L471.908 323.25L476.866 329.867C479.592 333.505 482.237 336.483 482.748 336.483C484.876 336.483 493.739 304.784 497.174 284.888C505.996 233.791 493.684 168.175 466.932 123.724C441.298 81.1361 404.912 48.2098 359.749 26.7361C329.304 12.2608 313.973 7.93459 274.641 2.72293C247.092 -0.926808 250.184 -0.935808 221.449 2.86675ZM314.568 313.569C313.197 314.429 308.441 321.353 303.998 328.956C283.242 364.463 248.586 419.636 247.04 419.636C246.092 419.636 241.444 413.316 236.711 405.59C205.579 354.767 179.905 314.137 178.895 314.092C177.517 314.031 174.552 318.302 147.909 358.718C101.807 428.654 101.206 429.657 103.736 432.556C108.338 437.833 135.14 454.98 149.344 461.731C176.058 474.433 196.108 479.827 226.934 482.609C278.32 487.243 328.644 474.602 375.198 445.366C402.808 428.027 404.468 435.412 358.276 370.056C336.053 338.611 317.689 312.688 317.464 312.445C317.242 312.204 315.937 312.71 314.568 313.569Z" fill="#2E3A48" stroke="#2E3A48" stroke-width="2" mask="url(#path-1-inside-1_7_28)"/>
</g>
<defs>
<clipPath id="clip0_7_28">
<rect width="500" height="500" fill="white"/>
</clipPath>
</defs>
</svg>
