<svg xmlns="http://www.w3.org/2000/svg" version="1.1" xmlns:xlink="http://www.w3.org/1999/xlink" width="512" height="512"><svg width="512" height="512" viewBox="0 0 512 512" fill="none" xmlns="http://www.w3.org/2000/svg">
<g clip-path="url(#clip0_36_2)">
<path d="M512 256C512 397.385 397.385 512 256 512C114.615 512 0 397.385 0 256C0 114.615 114.615 0 256 0C397.385 0 512 114.615 512 256Z" fill="#2E3A48"></path>
<path d="M254.703 36.0002C259.255 35.988 263.753 36.493 270.46 37.3743L277.985 38.376L281.11 38.7959C312.819 43.1257 326.65 47.1495 352.492 59.4362L354.347 60.3278C393.195 79.2217 424.601 107.898 446.801 144.781L447.354 145.707C470.481 184.742 481.071 241.178 473.664 285.92L473.484 286.983C471.968 295.763 469.294 306.956 466.782 315.939C465.528 320.426 464.266 324.535 463.159 327.605C462.621 329.096 462.027 330.605 461.403 331.852C461.115 332.429 460.633 333.335 459.947 334.226C459.649 334.612 459.123 335.247 458.352 335.888C458.379 336.257 458.395 336.628 458.397 337C458.424 342.523 455.348 346.835 454.479 348.323L454.478 348.322C454.181 348.83 453.764 349.544 453.311 350.213C452.893 350.83 452.101 351.938 450.912 352.949C450.683 353.144 450.427 353.343 450.148 353.541C450.133 354.052 450.091 354.579 450.015 355.12C449.703 357.349 448.912 359.304 448.151 360.894C447.385 362.494 446.382 364.256 445.292 366.125L445.293 366.126C428.746 394.516 400.085 424.582 373.567 441.273L372.306 442.058C262.58 509.535 124.429 473.27 64.1037 361.082L63.3983 359.759C28.793 294.396 26.6665 216.821 58.7407 156.909L59.8695 154.823C83.7479 111.174 117.67 78.9159 161.477 58.3817L163.751 57.3244C187.007 46.6045 202.992 42.1675 230.72 38.4969L238.571 37.454C245.552 36.5372 250.173 36.0124 254.703 36.0002ZM311.932 323.12C311.34 324.064 310.731 325.058 310.122 326.081L309.454 327.212L309.453 327.214C300.639 342.291 288.903 361.496 279.209 376.929C274.363 384.644 269.997 391.465 266.743 396.382C265.125 398.827 263.729 400.881 262.664 402.36C262.148 403.076 261.609 403.798 261.109 404.398C260.882 404.671 260.492 405.128 260.006 405.588C259.778 405.803 259.308 406.231 258.657 406.664C258.376 406.85 256.403 408.227 253.505 408.228C251.159 408.228 249.466 407.344 248.889 407.025C248.131 406.607 247.558 406.161 247.221 405.881C246.532 405.312 245.956 404.705 245.559 404.265C244.721 403.335 243.826 402.188 242.961 401.012C241.415 398.91 239.597 396.209 237.763 393.274L236.977 392.004C223.864 370.598 211.911 351.354 203.139 337.472C200.23 332.869 197.679 328.872 195.559 325.588C193.04 329.318 189.661 334.401 185.088 341.32L177.557 352.732C158.036 382.344 148.35 397.062 143.763 404.729C143.361 405.402 143.016 405.994 142.719 406.513C143.117 406.812 143.543 407.129 143.999 407.46C146.664 409.395 150.071 411.695 153.786 414.071C160.816 418.569 168.531 423.074 173.988 425.769L175.049 426.283L175.05 426.284L177.05 427.224C197.554 436.774 213.184 440.856 237.372 443.04C278.574 446.755 319.029 436.661 356.71 412.997L357.81 412.311C360.357 410.734 362.747 409.326 364.479 408.269C366.542 407.01 367.808 406.166 368.64 405.495C368.001 403.643 366.15 400.17 361.65 393.491C356.742 386.207 349.676 376.475 339.827 362.54C330.458 349.283 321.903 337.189 315.667 328.387C314.307 326.466 313.055 324.705 311.932 323.12ZM386.831 402.65C387.168 404.328 387.301 406.072 387.133 407.842C388.427 406.679 389.715 405.492 390.996 404.285C389.819 404.108 388.929 403.752 388.456 403.542C387.775 403.241 387.221 402.907 386.831 402.65ZM123.481 404.342C122.637 404.667 121.689 404.914 120.635 405.023C121.378 405.715 122.124 406.402 122.875 407.082C122.955 406.374 123.09 405.725 123.241 405.15C123.311 404.884 123.393 404.615 123.481 404.342ZM139.558 403.931L139.559 403.932L139.578 403.95C139.547 403.913 139.527 403.891 139.522 403.886L139.558 403.931ZM259.447 373.884C258.969 374.215 258.397 374.57 257.742 374.886C256.945 375.272 255.398 375.915 253.389 375.953L252.981 375.953H252.968C250.789 375.901 249.191 375.109 248.557 374.769C248.169 374.561 247.823 374.343 247.524 374.138C249.197 376.86 250.894 379.626 252.611 382.427L253.27 383.495C255.085 380.713 257.171 377.466 259.447 373.884ZM179.09 231.694C176.201 235.5 173.092 239.604 169.773 244.003L163.037 252.947C143.042 279.535 118.341 312.089 108.134 325.296C103.12 331.785 98.5903 337.934 95.3447 342.593C94.2399 344.178 93.3143 345.551 92.5804 346.678C92.7316 346.946 92.8939 347.232 93.0701 347.535C94.6517 350.254 96.9441 353.851 99.6515 357.863C105.075 365.898 111.832 375.105 117.219 381.529L118.449 382.982C118.493 383.034 118.537 383.085 118.58 383.136C120.386 380.567 122.647 377.327 125.246 373.582C131.742 364.221 140.313 351.771 149.108 338.934C166.755 313.175 185.121 286.122 189.55 279.182L189.943 278.569C190.408 277.854 191.074 276.879 191.829 276.044C192.174 275.663 192.658 275.177 193.281 274.684C185.293 261.683 180.41 247.173 179.09 231.694ZM325.106 210.924C325.369 214.518 325.445 218.608 325.487 223.569L325.5 225.399C325.545 234.384 325.292 240.994 323.686 247.628C322.09 254.221 319.258 260.411 315.021 268.783L314.154 270.486C313.521 271.729 312.776 273.018 311.94 274.343C312.986 275.243 313.999 276.243 314.897 277.214C316.064 278.474 317.262 279.926 318.235 281.375C318.716 282.092 319.255 282.977 319.708 283.956C319.9 284.372 320.22 285.1 320.47 286.047C320.75 286.431 321.13 286.904 321.571 287.383L321.809 287.636L321.815 287.642L322.097 287.944C323.601 289.59 326.483 293.248 329.675 297.399C332.37 300.903 335.546 305.105 338.842 309.534L342.165 314.022L342.166 314.023L349.247 323.624C356.646 333.641 364.556 344.316 369.009 350.289L371.375 353.472C376.332 360.155 382.466 368.517 386.856 374.574L388.891 377.391L388.892 377.392L389.764 378.591C390.883 380.11 391.976 381.528 392.988 382.787C394.571 381.073 396.389 378.989 398.347 376.631C404.263 369.506 410.945 360.518 415.586 353.104L416.557 351.569C418.824 348.025 421.078 344.77 422.997 342.247C424.008 340.918 425.034 339.649 425.991 338.613C422.761 334.126 420.128 330.507 419.591 329.814L416.188 325.431C408.336 315.33 401.141 306.168 395.578 299.171C392.395 295.168 389.765 291.896 387.858 289.57C386.901 288.402 386.155 287.508 385.627 286.892C385.336 286.553 385.174 286.374 385.112 286.305C384.685 285.903 384.385 285.556 384.38 285.55C384.191 285.34 383.987 285.102 383.787 284.868C383.381 284.391 382.857 283.761 382.245 283.016C381.013 281.517 379.328 279.436 377.319 276.936C374.301 273.18 370.519 268.438 366.384 263.216L362.145 257.853C348.662 240.763 336.21 224.987 325.106 210.924ZM283.715 304.94C278.173 309.575 272.535 313.638 267.531 316.291L266.762 316.691L252.162 324.103L235.325 314.427C230.682 311.758 226.289 308.874 222.157 305.799C222.966 306.987 223.864 308.291 224.865 309.721L226.138 311.549C232.697 321.02 242.084 335.269 247.772 344.413L248.849 346.127C250.397 348.562 251.91 350.825 253.291 352.801C260.385 341.157 274.787 318.546 283.715 304.94ZM79.1822 333.735C78.8759 333.92 78.5181 334.12 78.1169 334.308C77.5551 334.572 76.0063 335.259 73.9337 335.259C73.1974 335.259 72.5118 335.178 71.8793 335.043C72.7485 337.067 73.6488 339.082 74.5827 341.088C74.5844 341.084 74.5865 341.081 74.5881 341.078C75.0021 340.258 75.5173 339.376 76.0428 338.521C76.873 337.171 77.9432 335.545 79.1822 333.735ZM301.542 73.2776C291.142 70.7625 274.308 69.4709 256.885 69.6162C239.463 69.7616 222.652 71.3329 212.293 74.0206L212.294 74.0215C181.783 81.9396 153.766 96.7211 130.399 117.187L129.29 118.166C85.1439 157.425 63.102 214.742 69.6109 273.3L69.8544 275.389C71.1417 285.907 73.4152 297.471 75.7689 306.543C76.1067 307.846 76.4429 309.078 76.7715 310.233C78.2889 308.428 79.9108 306.434 81.558 304.331C96.3755 285.405 121.947 252.052 131.239 239.533L132.914 237.285C142.011 225.103 161.356 199.657 163.565 197.016L163.568 197.012L163.671 196.885C163.744 196.795 163.839 196.675 163.959 196.524C164.198 196.222 164.51 195.822 164.892 195.333C165.653 194.355 166.662 193.051 167.847 191.512C169.032 189.973 170.389 188.206 171.846 186.304L176.446 180.284C182.802 171.941 199.874 149.55 214.388 130.524L217.085 126.982C223.336 118.758 229.245 110.882 233.941 104.534C236.626 100.904 238.9 97.7923 240.609 95.4092C241.464 94.2162 242.162 93.2275 242.692 92.4596C242.957 92.0758 243.168 91.7634 243.329 91.5197C243.409 91.3988 243.472 91.3028 243.518 91.2296C243.541 91.1936 243.558 91.1657 243.571 91.1455C243.582 91.1275 243.588 91.1179 243.589 91.1159L243.592 91.1124L244.028 90.398C245.06 88.743 246.194 87.1665 247.299 85.8693C247.911 85.1513 248.687 84.3139 249.574 83.5695C250.012 83.2022 250.671 82.6926 251.509 82.2303C252.189 81.8558 253.89 80.9956 256.206 80.9735H256.224L256.537 80.9762C259.732 81.0567 261.924 82.7207 262.407 83.0772C263.3 83.7378 264.086 84.5 264.703 85.1361C265.98 86.4531 267.615 88.37 269.713 90.9467C273.969 96.174 280.852 105.021 292.016 119.501L293.6 121.549C311.521 144.632 376.618 226.442 397.484 252.075L408.622 265.754C421.285 281.31 430.883 293.139 438.062 302.253L438.58 300.452L438.809 299.631C441.157 290.988 442.871 277.43 443.552 262.922C444.252 248.015 443.82 233.01 442.179 222.471L442.178 222.47C430.966 150.429 376.742 92.1687 303.281 73.7064L301.542 73.2776ZM197.11 300.949C197.629 301.011 198.111 301.115 198.551 301.241C198.357 300.688 198.183 300.134 198.032 299.578C197.732 300.026 197.424 300.483 197.11 300.949ZM249.704 239.24C247.464 242.429 244.875 246.256 242.311 250.156C239.107 255.029 236.006 259.919 233.731 263.718C232.585 265.632 231.708 267.17 231.143 268.247C231.039 268.446 230.955 268.613 230.888 268.749C230.634 269.927 230.19 270.95 229.649 271.83C231.717 273.98 234.639 276.705 238.058 279.571C243.533 284.162 248.876 287.941 251.808 289.384L252.572 289.751C252.635 289.781 252.695 289.805 252.752 289.831C252.929 289.75 253.146 289.647 253.408 289.513C254.269 289.075 255.342 288.471 256.795 287.62L258.38 286.683C264.098 283.283 269.879 278.572 275.107 273.208C274.066 272.03 272.922 270.66 271.726 269.17C268.243 264.83 263.886 258.955 259.46 252.563L257.88 250.3C254.912 246.086 252.092 242.289 249.704 239.24ZM257.885 126.238C256.126 128.469 254.123 131.101 252.048 133.929C245.705 142.579 233.948 158.297 225.899 168.89C221.819 174.259 218.795 178.321 216.649 181.312C217.213 183.583 216.805 185.564 216.706 186.072C216.406 187.602 215.776 189.432 215.159 191.149C214.817 192.1 214.408 193.204 213.932 194.468L212.309 198.752C209.888 205.118 208.467 214.309 208.413 223.709C208.368 231.429 209.249 238.415 210.729 243.435C213.96 238.744 217.848 232.86 221.925 226.428L223.85 223.405C228.306 216.441 232.485 210.138 235.787 205.366C237.663 202.656 239.319 200.349 240.612 198.673C241.239 197.859 241.9 197.037 242.524 196.357C242.814 196.04 243.288 195.542 243.874 195.054C244.16 194.817 244.683 194.404 245.39 194.005C245.881 193.728 247.596 192.784 250.006 192.784L250.283 192.788C253.125 192.867 255.177 194.15 255.947 194.664C257.009 195.373 257.882 196.187 258.543 196.88C259.883 198.287 261.115 200.009 262.097 201.793L262.228 202.013C262.329 202.179 262.465 202.397 262.64 202.673C262.991 203.225 263.458 203.943 264.035 204.816C265.188 206.561 266.725 208.842 268.544 211.506C271.269 215.499 274.597 220.31 278.154 225.394L281.774 230.547L284.571 234.527C288.079 239.532 290.872 243.594 293.036 246.935C293.937 244.893 294.411 243.407 294.738 241.762C295.382 238.517 295.517 234.307 295.509 224.737L295.498 221.546C295.452 214.577 295.258 210.823 294.748 207.971C294.304 205.493 293.594 203.531 291.897 200.142L291.108 198.596C288.411 193.405 282.651 184.484 278.507 179.134C273.171 172.243 269.568 167.433 267.745 164.282C267.258 163.44 266.727 162.43 266.318 161.334C265.972 160.405 265.334 158.445 265.621 156.05C265.992 152.956 267.792 150.145 270.675 148.571C272.241 147.716 273.761 147.433 274.826 147.341C272.124 143.938 270.517 141.922 270.128 141.455L270.127 141.453C268.737 139.781 264.045 133.938 259.725 128.5C259.1 127.714 258.483 126.956 257.885 126.238Z" fill="#F5F5F5"></path>
</g>
<defs>
<clipPath id="SvgjsClipPath1053">
<rect width="512" height="512" fill="white" transform="translate(-0.000366211 -0.000244141)"></rect>
</clipPath>
</defs>
</svg><style>@media (prefers-color-scheme: light) { :root { filter: none; } }
@media (prefers-color-scheme: dark) { :root { filter: none; } }
</style></svg>